<?xml version="1.0" standalone="no"?>
<!DOCTYPE svg PUBLIC "-//W3C//DTD SVG 20010904//EN"
 "http://www.w3.org/TR/2001/REC-SVG-20010904/DTD/svg10.dtd">
<svg version="1.0" xmlns="http://www.w3.org/2000/svg"
 width="694.000000pt" height="498.000000pt" viewBox="0 0 694.000000 498.000000"
 preserveAspectRatio="xMidYMid meet">

<g transform="translate(0.000000,498.000000) scale(0.100000,-0.100000)"
fill="#000000" stroke="none">
<path d="M5317 4569 c7 -7 15 -10 18 -7 3 3 -2 9 -12 12 -14 6 -15 5 -6 -5z"/>
<path d="M4582 4494 c-12 -8 -22 -11 -22 -6 0 6 -13 7 -32 2 -18 -5 -62 -16
-99 -25 -36 -9 -121 -44 -190 -78 -97 -48 -124 -66 -124 -82 0 -36 -15 -48
-53 -41 -32 5 -45 -2 -136 -66 -230 -164 -331 -250 -340 -291 -7 -31 8 -29 32
5 30 42 83 9 67 -42 -8 -25 -53 -27 -71 -2 -11 14 -13 15 -14 1 0 -8 5 -20 11
-26 7 -7 3 -12 -15 -15 -14 -3 -23 -2 -21 3 3 4 1 11 -5 14 -6 4 -9 1 -8 -7 2
-8 -9 -14 -32 -16 -20 -2 -40 -12 -48 -23 -7 -10 -20 -19 -28 -19 -8 0 -14 -9
-14 -20 0 -21 -14 -27 -24 -11 -3 5 -15 7 -26 4 -16 -4 -19 -2 -13 13 6 15 1
15 -33 -6 -21 -13 -41 -27 -44 -31 -3 -4 -4 43 -2 104 3 124 -13 250 -31 244
-7 -2 -11 -11 -9 -21 2 -9 -2 -16 -8 -16 -15 0 -5 -297 11 -316 16 -19 49 -18
65 4 12 15 13 15 14 -10 0 -22 -4 -26 -17 -21 -12 5 -15 2 -10 -10 3 -9 2 -17
-3 -17 -6 0 -10 4 -10 8 0 4 -9 8 -20 8 -13 0 -19 -6 -16 -16 3 -8 12 -46 21
-84 19 -80 35 -117 46 -111 4 3 10 1 14 -5 3 -5 1 -10 -4 -10 -6 0 -11 -5 -11
-10 0 -7 6 -7 20 0 19 10 19 13 5 40 -20 38 -19 40 8 38 23 -2 177 97 177 115
0 30 83 51 93 23 8 -19 -46 -77 -72 -79 -30 -2 -40 -45 -16 -64 11 -7 14 -13
9 -13 -6 0 -15 5 -21 11 -8 8 -13 2 -19 -23 -11 -46 -11 -52 1 -60 6 -5 5 -8
-3 -8 -7 0 -10 -5 -6 -11 3 -6 1 -14 -5 -18 -6 -4 -15 -31 -20 -60 -4 -28 -11
-54 -14 -57 -3 -3 -18 18 -33 48 -40 79 -54 97 -70 91 -20 -7 -18 -14 21 -97
19 -41 35 -78 35 -83 0 -24 22 -83 31 -83 6 0 24 -9 40 -21 l29 -20 0 30 c0
17 -7 34 -16 39 -19 11 -11 32 12 32 11 0 15 14 14 63 0 99 4 131 18 140 7 5
10 13 6 18 -9 14 43 142 77 188 33 46 36 61 13 61 -9 0 -14 5 -12 11 2 6 7 10
11 10 4 -1 14 -1 22 -1 9 0 12 -6 9 -15 -4 -10 0 -15 15 -15 26 0 101 -29 216
-85 50 -24 113 -50 140 -58 28 -8 68 -23 89 -32 69 -29 266 -74 424 -97 132
-18 155 -20 163 -7 7 10 11 11 17 2 4 -6 19 -14 33 -18 21 -5 29 -1 43 20 15
23 20 24 33 13 13 -10 17 -10 20 0 7 20 20 14 19 -10 -1 -30 41 -39 50 -11 3
10 10 26 15 35 14 27 11 37 -11 31 -15 -4 -19 -2 -14 10 3 9 12 18 20 21 10 4
12 2 8 -6 -5 -8 -2 -9 10 -5 9 4 14 3 11 -2 -3 -5 -1 -12 5 -16 5 -3 10 2 10
12 0 16 1 16 17 0 16 -15 19 -14 59 30 35 38 46 44 57 34 22 -18 56 0 118 61
78 78 108 145 128 284 9 69 4 80 -24 50 -13 -14 -35 -28 -49 -32 -32 -8 -118
-93 -109 -107 4 -6 0 -8 -9 -5 -8 4 -21 3 -28 -2 -10 -6 -8 -15 9 -39 12 -17
18 -31 12 -31 -6 0 -11 5 -11 10 0 6 -11 15 -25 20 -21 8 -33 5 -63 -13 -20
-13 -77 -45 -127 -71 -49 -27 -92 -50 -93 -51 -2 -2 15 -15 37 -29 46 -30 50
-40 20 -57 -31 -16 -75 18 -71 56 l3 27 -45 -31 -44 -31 21 -39 c21 -39 21
-40 3 -60 -32 -36 -94 -22 -83 18 3 12 1 19 -4 15 -5 -3 -9 0 -9 6 0 7 -16 -2
-35 -19 -20 -17 -46 -31 -58 -31 -13 0 -29 -6 -36 -12 -11 -11 -13 -10 -8 4 5
13 0 19 -16 22 -244 49 -405 95 -542 153 -101 44 -295 138 -294 143 0 3 31 29
70 58 38 29 69 59 69 67 0 27 32 55 50 45 22 -12 60 14 60 42 0 16 5 19 21 15
14 -4 46 11 102 48 45 29 106 64 134 79 39 19 57 35 67 60 18 44 33 52 56 31
21 -19 18 -20 160 20 247 68 525 34 678 -83 24 -18 46 -31 49 -28 10 10 -8 58
-30 80 -28 29 -47 62 -47 80 0 7 10 26 22 41 15 20 18 30 10 33 -7 2 -12 9
-12 15 0 6 -8 19 -17 30 -17 19 -17 20 5 14 38 -9 8 19 -52 48 -97 47 -188 65
-341 65 -111 0 -145 -3 -163 -16z m78 -19 c0 -8 -7 -15 -15 -15 -8 0 -15 7
-15 15 0 8 7 15 15 15 8 0 15 -7 15 -15z m290 -5 c0 -5 -4 -10 -10 -10 -5 0
-10 5 -10 10 0 6 5 10 10 10 6 0 10 -4 10 -10z m-427 -25 c8 -18 -11 -31 -25
-17 -11 11 -3 32 12 32 4 0 10 -7 13 -15z m487 6 c0 -5 -6 -14 -14 -20 -16
-13 -32 2 -21 19 8 12 35 13 35 1z m-51 -59 c-14 -5 -39 6 -39 17 0 5 11 4 25
-2 13 -7 20 -14 14 -15z m91 -36 c0 -20 -13 -27 -30 -15 -13 8 -13 10 0 19 21
14 30 12 30 -4z m-6 -61 c3 -9 -1 -18 -10 -22 -19 -7 -39 11 -30 26 10 16 33
13 40 -4z m-1239 -235 c3 -5 1 -10 -4 -10 -6 0 -11 5 -11 10 0 6 2 10 4 10 3
0 8 -4 11 -10z m-19 -29 c-3 -5 3 -11 14 -14 11 -3 20 -13 20 -22 0 -14 -3
-15 -15 -5 -8 7 -15 9 -15 4 0 -5 -5 -1 -11 9 -9 16 -5 37 7 37 3 0 3 -4 0 -9z
m-42 -62 c-3 -5 -10 -7 -15 -3 -5 3 -7 10 -3 15 3 5 10 7 15 3 5 -3 7 -10 3
-15z m56 -19 c-12 -23 -30 -27 -30 -6 0 8 8 17 18 19 9 3 18 5 20 6 1 0 -2 -8
-8 -19z m-27 -60 c-3 -11 -7 -20 -9 -20 -2 0 -4 9 -4 20 0 11 4 20 9 20 5 0 7
-9 4 -20z m1533 -72 c4 -6 0 -17 -10 -23 -9 -7 -14 -19 -10 -29 7 -19 0 -20
-27 -6 -24 13 -25 46 -1 59 23 14 39 14 48 -1z m-1704 -22 c-3 -6 -5 -18 -4
-27 2 -9 -5 -22 -15 -30 -15 -12 -16 -12 -10 3 3 10 2 20 -3 23 -14 9 5 42 24
42 8 0 12 -5 8 -11z m108 4 c0 -5 -5 -10 -11 -10 -5 0 -7 5 -4 10 3 6 8 10 11
10 2 0 4 -4 4 -10z m-180 -30 c0 -5 -7 -10 -17 -10 -15 0 -15 -1 0 -18 15 -16
15 -20 2 -39 -20 -29 -72 -27 -67 2 2 11 10 25 18 31 8 6 14 16 14 22 0 9 15
17 43 21 4 0 7 -3 7 -9z m-173 -175 c24 -25 10 -32 -16 -7 -13 12 -19 22 -12
22 7 0 19 -7 28 -15z m1823 -35 c0 -5 -4 -10 -10 -10 -5 0 -10 5 -10 10 0 6 5
10 10 10 6 0 10 -4 10 -10z m-1640 -91 c0 -5 -4 -9 -10 -9 -5 0 -10 7 -10 16
0 8 5 12 10 9 6 -3 10 -10 10 -16z"/>
<path d="M3030 4407 c-30 -13 -73 -33 -95 -45 -36 -20 -37 -21 -10 -16 17 4
39 11 50 17 13 7 20 7 23 -1 2 -7 11 -8 27 -2 13 5 50 9 82 8 58 -1 59 -1 57
-29 -1 -16 2 -26 7 -23 5 3 9 -1 9 -9 0 -12 19 -27 35 -27 2 0 2 13 1 29 -3
37 -46 101 -68 101 -10 0 -18 5 -18 10 0 17 -42 11 -100 -13z"/>
<path d="M2837 4321 c-30 -13 -35 -19 -25 -29 19 -19 34 -15 53 14 9 14 15 27
13 29 -2 1 -20 -5 -41 -14z"/>
<path d="M2895 4319 c-12 -19 5 -23 22 -6 16 16 16 17 1 17 -9 0 -20 -5 -23
-11z"/>
<path d="M5248 4287 c-5 -46 4 -64 22 -42 11 13 11 21 -2 48 l-15 32 -5 -38z"/>
<path d="M5551 4295 c14 -14 21 -15 35 -6 11 7 13 10 4 8 -8 -2 -24 0 -35 6
-19 9 -19 8 -4 -8z"/>
<path d="M2704 4270 c-12 -5 -25 -13 -28 -18 -3 -6 -14 -8 -25 -5 -14 3 -20
-2 -23 -21 -3 -14 -1 -26 3 -26 5 0 9 4 9 9 0 5 9 7 20 4 14 -4 20 0 20 10 0
10 6 13 20 10 31 -8 49 3 43 26 -6 23 -8 24 -39 11z"/>
<path d="M3190 4242 c0 -5 3 -12 7 -16 4 -4 8 -15 8 -24 1 -9 2 -29 3 -44 2
-24 6 -28 32 -28 17 0 30 5 30 13 0 25 -19 77 -34 92 -16 16 -46 20 -46 7z"/>
<path d="M2557 4225 c-48 -17 -51 -19 -32 -35 15 -13 86 -6 84 8 -3 35 -14 40
-52 27z"/>
<path d="M5284 4213 c-22 -30 -35 -59 -39 -83 -1 -8 -6 -23 -10 -33 -5 -12 -3
-16 7 -12 8 3 25 -6 38 -20 13 -14 30 -25 38 -25 9 0 24 -8 35 -17 20 -18 20
-17 13 42 -7 63 -31 141 -51 163 -9 10 -15 6 -31 -15z"/>
<path d="M2418 4190 c-27 -8 -64 -37 -57 -44 10 -9 69 8 69 20 0 13 12 18 33
15 4 0 7 4 7 9 0 12 -14 12 -52 0z"/>
<path d="M1392 4168 c-7 -7 -12 -25 -12 -42 0 -16 -7 -37 -16 -47 -18 -20 -30
-164 -14 -174 6 -4 10 5 10 22 0 17 8 33 20 41 11 7 20 23 20 36 0 31 19 87
38 109 12 13 31 17 89 17 40 0 73 4 73 8 0 17 69 7 84 -13 9 -11 15 -15 15
-10 0 6 -5 17 -12 26 -24 31 -269 53 -295 27z"/>
<path d="M2280 4170 c-29 -7 -102 -17 -132 -19 -5 -1 -8 -6 -8 -12 0 -7 9 -9
21 -6 15 4 19 2 15 -9 -4 -10 -2 -12 6 -8 6 4 40 8 75 9 69 3 90 13 80 39 -7
18 -7 17 -57 6z"/>
<path d="M1737 4132 c4 -17 10 -21 29 -16 15 4 24 2 24 -5 0 -7 35 -11 108
-11 65 0 102 4 93 9 -7 5 -10 14 -7 20 5 7 -8 11 -41 11 -26 0 -85 3 -130 6
-80 7 -82 6 -76 -14z"/>
<path d="M2065 4110 c-4 -7 8 -8 37 -4 57 9 61 14 10 14 -22 0 -44 -5 -47 -10z"/>
<path d="M3550 3891 c0 -6 4 -12 8 -15 5 -3 9 1 9 9 0 8 -4 15 -9 15 -4 0 -8
-4 -8 -9z"/>
<path d="M3507 3878 c-15 -12 -15 -15 0 -33 14 -18 15 -18 9 -1 -3 10 -1 25 5
32 14 17 8 18 -14 2z"/>
<path d="M1355 3860 c4 -6 11 -8 16 -5 14 9 11 15 -7 15 -8 0 -12 -5 -9 -10z"/>
<path d="M2608 3863 c6 -2 18 -2 25 0 6 3 1 5 -13 5 -14 0 -19 -2 -12 -5z"/>
<path d="M3530 3859 c0 -5 5 -7 10 -4 6 3 10 8 10 11 0 2 -4 4 -10 4 -5 0 -10
-5 -10 -11z"/>
<path d="M2432 3804 c43 -60 90 -101 114 -99 10 1 33 10 51 21 l31 20 -66 23
c-37 13 -86 36 -110 52 -24 16 -45 29 -48 29 -3 0 10 -21 28 -46z"/>
<path d="M2725 3840 c11 -5 36 -9 55 -9 28 0 31 2 15 9 -11 5 -36 9 -55 9 -28
0 -31 -2 -15 -9z"/>
<path d="M1190 3830 c0 -5 7 -10 15 -10 8 0 15 5 15 10 0 6 -7 10 -15 10 -8 0
-15 -4 -15 -10z"/>
<path d="M1350 3825 c0 -27 31 -169 41 -185 7 -13 8 -13 9 2 0 9 5 20 11 24 7
4 9 0 5 -14 -4 -12 -2 -31 4 -43 9 -17 9 -23 0 -29 -18 -11 7 -111 32 -128 13
-9 16 -18 9 -25 -5 -7 -8 -70 -6 -147 l4 -135 -62 -3 c-55 -2 -130 -12 -208
-28 -25 -5 -27 -8 -22 -45 6 -41 1 -45 -44 -33 -13 4 -23 12 -23 19 0 7 -9 15
-21 18 -15 4 -30 -5 -57 -34 -21 -22 -46 -39 -59 -39 -12 0 -23 -3 -26 -7 -2
-5 -3 -3 -1 2 1 6 -4 19 -12 29 -13 18 -15 18 -60 1 -25 -10 -54 -26 -62 -36
-9 -11 -21 -19 -27 -19 -19 0 -63 -53 -86 -104 -14 -32 -23 -78 -26 -130 -6
-85 12 -226 28 -226 5 0 9 8 9 19 0 12 9 20 23 23 30 6 47 -1 47 -18 0 -13
-17 -24 -62 -38 -11 -3 -15 -12 -11 -26 5 -19 7 -19 23 -5 24 21 33 19 28 -8
-3 -18 2 -28 22 -39 25 -14 28 -14 39 4 9 15 19 18 42 13 18 -4 29 -3 29 4 0
29 32 6 54 -40 28 -55 34 -85 11 -56 -13 18 -15 18 -44 -3 -28 -22 -69 -22
-56 0 3 5 2 10 -3 10 -5 0 -12 9 -15 20 -6 23 -35 26 -62 6 -17 -12 -16 -16
22 -57 34 -36 43 -41 56 -31 8 7 21 10 30 6 19 -7 29 -31 17 -39 -6 -4 -10
-10 -10 -14 0 -13 119 -61 160 -66 19 -2 54 -8 77 -14 23 -6 85 -12 137 -14
88 -3 93 -2 82 15 -6 10 -14 18 -18 18 -20 0 -23 2 -30 19 -3 10 -20 21 -36
24 -18 4 -33 14 -37 26 -5 16 -12 19 -40 14 -42 -7 -57 17 -30 47 13 15 22 17
42 9 37 -14 53 -11 53 11 0 21 -10 26 -26 11 -5 -5 -19 -5 -31 0 -18 6 -23 16
-23 44 0 19 -5 35 -11 35 -12 0 -40 -26 -35 -31 2 -2 -2 -10 -10 -17 -12 -11
-15 -11 -20 1 -4 10 -16 12 -51 7 -39 -6 -46 -5 -50 11 -3 10 -11 20 -19 23
-8 3 -14 16 -14 28 0 24 -37 48 -72 48 -10 0 -18 5 -18 11 0 7 -10 5 -25 -5
-24 -16 -26 -16 -32 0 -3 9 -1 25 6 35 10 16 5 27 -29 70 -42 53 -50 83 -25
93 8 3 15 13 15 22 0 10 3 15 6 12 3 -4 38 9 77 28 84 40 212 74 388 103 166
28 177 27 185 -4 4 -14 11 -24 18 -22 13 5 12 18 -3 65 -7 25 -7 32 2 29 6 -2
14 -14 18 -28 7 -23 7 -23 8 -2 1 12 -3 24 -8 27 -5 3 -7 16 -3 28 4 17 2 20
-11 15 -9 -3 -19 -2 -22 2 -2 5 7 12 22 16 15 3 23 9 17 13 -13 10 -17 35 -4
27 5 -3 10 0 10 9 0 8 3 21 6 30 3 9 1 16 -6 16 -6 0 -8 -4 -5 -10 3 -5 2 -10
-2 -10 -5 0 -14 9 -21 20 -11 17 -10 20 7 20 25 0 37 17 45 68 5 34 3 42 -9
42 -8 0 -15 7 -15 16 0 11 5 14 16 10 15 -6 16 4 10 101 -4 60 -11 122 -15
138 -17 57 -53 210 -64 265 -5 30 -12 49 -15 42 -5 -17 -31 16 -32 41 0 21
-20 23 -20 2z m-280 -775 c0 -5 -5 -10 -11 -10 -5 0 -7 5 -4 10 3 6 8 10 11
10 2 0 4 -4 4 -10z m-50 -44 c0 -2 -8 -10 -17 -17 -16 -13 -17 -12 -4 4 13 16
21 21 21 13z m-122 -22 c17 -5 21 -11 17 -25 -4 -11 -2 -19 6 -19 9 0 8 -4 -1
-15 -7 -8 -10 -24 -7 -36 3 -12 0 -27 -6 -34 -18 -19 -70 9 -62 34 3 12 0 21
-10 25 -18 7 -19 29 -3 56 13 21 28 24 66 14z m444 -27 c13 -20 9 -44 -8 -51
-18 -7 -54 19 -54 40 0 7 -6 14 -12 16 -7 3 5 5 27 6 21 1 43 -4 47 -11z
m-542 -37 c0 -5 -5 -10 -11 -10 -5 0 -7 5 -4 10 3 6 8 10 11 10 2 0 4 -4 4
-10z m270 1 c0 -10 -25 -21 -48 -21 -15 1 -14 3 2 15 22 17 46 20 46 6z m-115
-31 c10 -11 13 -20 7 -20 -7 0 -15 0 -19 0 -5 0 -8 3 -8 8 0 4 -4 13 -8 20
-13 20 8 14 28 -8z m-160 0 c3 -5 -1 -10 -9 -10 -8 0 -18 5 -21 10 -3 6 1 10
9 10 8 0 18 -4 21 -10z m250 -10 c-3 -5 -11 -10 -16 -10 -6 0 -7 5 -4 10 3 6
11 10 16 10 6 0 7 -4 4 -10z m55 -5 c0 -2 -6 -5 -13 -8 -8 -3 -14 1 -14 8 0 7
6 11 14 8 7 -3 13 -6 13 -8z m-212 -69 c-2 -12 -7 -20 -13 -19 -5 0 -18 -3
-27 -8 -12 -6 -25 -6 -39 1 -20 11 -20 12 5 35 14 12 31 25 38 28 20 7 39 -13
36 -37z m-88 -446 c0 -5 -5 -10 -11 -10 -5 0 -7 5 -4 10 3 6 8 10 11 10 2 0 4
-4 4 -10z m215 -10 c-3 -5 -13 -10 -21 -10 -8 0 -12 5 -9 10 3 6 13 10 21 10
8 0 12 -4 9 -10z m83 -27 c-2 -21 -8 -28 -25 -28 -11 0 -25 -3 -29 -7 -13 -13
-22 -9 -29 12 -9 30 12 50 52 50 32 0 34 -2 31 -27z m-128 -7 c0 -3 -4 -8 -10
-11 -5 -3 -10 -1 -10 4 0 6 5 11 10 11 6 0 10 -2 10 -4z"/>
<path d="M3450 3830 c0 -5 4 -10 9 -10 6 0 13 5 16 10 3 6 -1 10 -9 10 -9 0
-16 -4 -16 -10z"/>
<path d="M2235 3797 c-10 -20 -16 -39 -13 -42 10 -10 40 42 36 61 -2 13 -8 7
-23 -19z"/>
<path d="M2870 3811 c8 -5 33 -12 55 -16 27 -4 35 -3 25 4 -8 5 -33 12 -55 16
-27 4 -35 3 -25 -4z"/>
<path d="M2010 3760 c-8 -5 -10 -10 -5 -10 6 0 17 5 25 10 8 5 11 10 5 10 -5
0 -17 -5 -25 -10z"/>
<path d="M3021 3763 c0 -4 24 -26 52 -47 29 -22 46 -32 38 -23 -20 26 -91 80
-90 70z"/>
<path d="M1280 3750 c0 -5 5 -10 11 -10 5 0 7 5 4 10 -3 6 -8 10 -11 10 -2 0
-4 -4 -4 -10z"/>
<path d="M2170 3730 c-14 -11 -63 -41 -109 -67 -46 -25 -93 -57 -104 -70 -11
-12 -29 -23 -39 -23 -33 0 -149 -84 -169 -122 -8 -16 -8 -19 1 -13 9 6 9 3 1
-13 -6 -12 -17 -19 -25 -16 -19 7 -36 -18 -29 -44 8 -31 18 -28 71 19 26 23
73 54 105 70 31 16 57 34 57 39 0 6 11 10 25 10 55 0 194 90 195 126 0 12 8
28 17 35 11 10 14 10 9 2 -17 -30 4 -10 30 28 23 34 25 42 13 50 -19 12 -20
12 -49 -11z"/>
<path d="M2638 3718 c-23 -28 -23 -34 2 -41 13 -3 18 -11 14 -20 -8 -23 29
-27 42 -4 10 17 12 16 37 -9 22 -21 34 -25 67 -22 22 2 41 0 43 -5 1 -4 16 -1
32 7 43 22 64 20 77 -10 21 -45 120 -68 114 -27 -4 22 -137 92 -143 76 -3 -7
-9 -13 -14 -13 -6 0 -7 5 -3 11 4 8 -3 9 -26 4 -28 -6 -32 -5 -27 9 9 23 -36
40 -64 25 -25 -13 -62 -3 -39 11 21 13 -10 23 -54 18 -19 -2 -32 0 -30 4 11
18 -12 6 -28 -14z m22 -18 c0 -5 -5 -10 -11 -10 -5 0 -7 5 -4 10 3 6 8 10 11
10 2 0 4 -4 4 -10z m330 -75 c0 -8 -7 -15 -15 -15 -9 0 -12 6 -9 15 4 8 10 15
15 15 5 0 9 -7 9 -15z"/>
<path d="M1898 3703 c-34 -13 -51 -33 -30 -33 10 0 72 39 72 45 0 6 2 7 -42
-12z"/>
<path d="M2617 3659 c7 -7 15 -10 18 -7 3 3 -2 9 -12 12 -14 6 -15 5 -6 -5z"/>
<path d="M1767 3623 c-20 -14 -37 -30 -37 -35 0 -10 23 2 60 31 38 30 19 34
-23 4z"/>
<path d="M2483 3626 c3 -8 9 -32 13 -53 11 -63 50 -139 94 -187 43 -46 63 -56
76 -34 4 6 3 8 -3 5 -5 -3 -10 0 -10 8 0 18 13 20 20 3 4 -10 8 -9 16 2 9 13
11 12 11 -5 0 -12 -5 -26 -12 -33 -8 -8 -5 -14 16 -22 53 -20 133 -11 243 25
65 21 125 35 156 35 28 0 47 3 43 8 -4 4 -13 7 -19 7 -7 0 -16 9 -21 21 -5 11
-23 28 -40 37 l-31 17 23 -19 c12 -11 18 -22 14 -25 -11 -6 -63 50 -55 58 4 3
-5 6 -20 6 -14 0 -27 5 -29 10 -2 6 -13 12 -26 15 -12 2 -26 6 -31 9 -4 3 -55
10 -112 15 -127 12 -186 29 -263 76 -32 19 -56 29 -53 21z m197 -116 c0 -5 -4
-10 -9 -10 -6 0 -13 5 -16 10 -3 6 1 10 9 10 9 0 16 -4 16 -10z m100 -1 c0 -4
-7 -9 -15 -13 -9 -3 -15 0 -15 8 0 7 7 13 15 13 8 0 15 -4 15 -8z m-110 -23
c0 -3 -4 -8 -10 -11 -5 -3 -10 -1 -10 4 0 6 5 11 10 11 6 0 10 -2 10 -4z m-80
-31 c0 -8 9 -24 20 -35 11 -11 16 -20 11 -20 -5 0 -19 12 -30 28 -11 15 -21
21 -21 14 0 -18 -20 -5 -20 14 0 8 9 14 20 14 11 0 20 -7 20 -15z m77 -20 c-9
-8 -18 -11 -22 -6 -3 6 3 14 12 20 24 13 29 6 10 -14z m340 10 c8 -22 -6 -33
-17 -15 -13 20 -12 30 0 30 6 0 13 -7 17 -15z"/>
<path d="M1170 3605 c0 -9 5 -15 11 -13 6 2 11 8 11 13 0 5 -5 11 -11 13 -6 2
-11 -4 -11 -13z"/>
<path d="M2227 3584 c-10 -13 -15 -30 -11 -37 4 -6 3 -9 -1 -4 -5 4 -21 -5
-37 -20 l-28 -27 21 -22 c18 -19 19 -23 5 -37 -9 -9 -16 -20 -16 -26 0 -13
-38 -34 -49 -27 -5 3 -8 24 -7 46 1 22 2 40 1 40 -1 0 -26 -12 -56 -26 -30
-15 -79 -37 -109 -51 -46 -20 -52 -26 -37 -34 23 -13 22 -42 -3 -64 -19 -17
-21 -17 -46 0 -26 17 -27 18 -9 31 10 8 16 16 13 19 -11 11 -106 -75 -141
-128 -45 -68 -46 -80 -4 -59 24 13 63 17 166 18 73 1 153 8 178 14 41 12 44
15 38 41 -6 26 -4 29 17 29 13 0 33 6 44 14 16 13 17 18 7 35 -7 12 -13 27
-13 34 0 7 6 25 13 40 10 22 19 27 50 27 35 0 46 8 31 23 -14 14 -12 67 2 67
15 0 19 60 6 92 -6 14 -9 13 -25 -8z m-157 -184 c0 -5 -4 -10 -10 -10 -5 0
-10 5 -10 10 0 6 5 10 10 10 6 0 10 -4 10 -10z m-69 -130 c34 -19 15 -80 -25
-80 -3 0 -13 11 -22 25 -16 24 -16 27 1 45 21 23 20 23 46 10z"/>
<path d="M1320 3580 c0 -5 5 -10 11 -10 5 0 7 5 4 10 -3 6 -8 10 -11 10 -2 0
-4 -4 -4 -10z"/>
<path d="M3084 3553 c1 -20 14 -36 49 -61 26 -19 55 -48 63 -64 9 -16 18 -28
21 -25 9 10 -113 177 -130 177 -3 0 -4 -12 -3 -27z"/>
<path d="M892 3523 c2 -10 10 -18 18 -18 22 0 18 29 -3 33 -14 3 -18 -1 -15
-15z"/>
<path d="M1639 3493 c-13 -16 -12 -17 4 -4 16 13 21 21 13 21 -2 0 -10 -8 -17
-17z"/>
<path d="M1180 3470 c0 -5 5 -10 10 -10 6 0 10 5 10 10 0 6 -4 10 -10 10 -5 0
-10 -4 -10 -10z"/>
<path d="M5228 3452 c-27 -2 -48 -7 -48 -11 0 -5 -11 -6 -25 -3 -26 5 -34 -11
-13 -24 19 -12 187 -11 192 1 2 6 4 1 4 -10 0 -27 31 -108 44 -116 6 -4 8 -16
5 -28 -5 -22 8 -30 16 -8 3 6 6 2 6 -10 1 -12 -7 -28 -17 -35 -13 -9 -22 -37
-30 -98 -7 -47 -15 -94 -17 -105 -4 -14 1 -23 19 -31 23 -11 25 -9 35 30 19
77 33 231 27 298 -7 77 -13 98 -31 98 -7 0 -20 11 -30 24 -13 17 -26 23 -44
21 -14 -1 -30 0 -36 4 -5 3 -31 5 -57 3z"/>
<path d="M4974 3428 c2 -16 -2 -28 -7 -28 -8 0 -8 -3 -1 -10 6 -6 18 -8 28 -4
14 5 15 8 2 18 -8 6 -17 20 -20 31 -3 12 -4 8 -2 -7z"/>
<path d="M4995 3441 c-3 -5 -1 -12 5 -16 5 -3 10 1 10 9 0 18 -6 21 -15 7z"/>
<path d="M1383 3428 c-16 -20 -26 -58 -15 -58 5 0 20 9 33 19 22 18 23 21 8
36 -13 13 -18 14 -26 3z"/>
<path d="M1175 3420 c3 -5 8 -10 11 -10 2 0 4 5 4 10 0 6 -5 10 -11 10 -5 0
-7 -4 -4 -10z"/>
<path d="M3880 3415 c0 -8 5 -15 10 -15 6 0 10 -5 10 -11 0 -6 -9 -8 -20 -4
-25 8 -50 -10 -50 -36 0 -16 8 -19 43 -19 39 0 100 -14 150 -35 14 -6 17 -2
17 19 0 27 -27 48 -117 95 -36 18 -43 19 -43 6z"/>
<path d="M2532 3380 c13 -22 26 -40 31 -40 4 0 -5 18 -19 40 -34 52 -41 52
-12 0z"/>
<path d="M4820 3390 c0 -5 5 -10 10 -10 6 0 10 5 10 10 0 6 -4 10 -10 10 -5 0
-10 -4 -10 -10z"/>
<path d="M400 3371 c0 -6 5 -13 10 -16 6 -3 10 1 10 9 0 9 -4 16 -10 16 -5 0
-10 -4 -10 -9z"/>
<path d="M1300 3340 c0 -5 5 -10 11 -10 5 0 7 5 4 10 -3 6 -8 10 -11 10 -2 0
-4 -4 -4 -10z"/>
<path d="M3045 3333 c-11 -3 -33 -11 -50 -18 -16 -6 -52 -22 -80 -33 -82 -34
-218 -34 -262 1 -14 10 -17 -1 -5 -19 7 -12 52 -22 139 -31 63 -6 126 13 228
68 68 38 72 42 30 32z"/>
<path d="M2580 3310 c6 -11 15 -18 21 -15 13 9 11 13 -12 25 -19 11 -20 10 -9
-10z"/>
<path d="M3705 3279 c-26 -40 -80 -197 -72 -206 3 -3 18 15 32 39 47 76 74
113 110 153 20 21 33 41 30 44 -3 3 -22 6 -41 7 -31 1 -39 -4 -59 -37z"/>
<path d="M1636 3268 c-8 -18 -17 -51 -20 -73 -7 -42 -7 -41 62 98 2 4 -4 7
-13 7 -9 0 -22 -14 -29 -32z"/>
<path d="M2230 3249 c0 -5 5 -7 10 -4 6 3 10 8 10 11 0 2 -4 4 -10 4 -5 0 -10
-5 -10 -11z"/>
<path d="M4141 3250 c-10 -6 7 -28 63 -85 l76 -77 20 24 c18 21 40 78 40 102
0 6 -13 -3 -30 -19 l-29 -28 -53 40 c-68 52 -71 53 -87 43z m134 -120 c3 -5 1
-10 -4 -10 -6 0 -11 5 -11 10 0 6 2 10 4 10 3 0 8 -4 11 -10z"/>
<path d="M990 3240 c0 -5 7 -10 15 -10 8 0 15 5 15 10 0 6 -7 10 -15 10 -8 0
-15 -4 -15 -10z"/>
<path d="M685 3210 c3 -5 8 -10 11 -10 2 0 4 5 4 10 0 6 -5 10 -11 10 -5 0 -7
-4 -4 -10z"/>
<path d="M5018 3198 c-13 -15 -18 -18 -18 -8 -1 11 -3 11 -11 -2 -11 -20 -34
-25 -24 -5 4 6 0 4 -8 -6 -13 -16 -19 -17 -38 -6 -34 18 -76 21 -122 8 l-40
-10 25 -13 c17 -9 49 -12 96 -8 93 6 158 -4 182 -30 36 -39 98 -232 101 -318
1 -23 5 -13 10 30 10 71 -3 244 -21 297 -8 21 -16 30 -26 26 -8 -3 -14 0 -14
7 0 7 -6 10 -14 7 -10 -4 -12 0 -9 14 3 11 9 22 14 25 5 3 6 -3 2 -13 -5 -14
-3 -15 7 -6 19 18 2 33 -38 33 -26 0 -42 -7 -54 -22z"/>
<path d="M1965 3141 c-138 -7 -125 -26 18 -25 78 0 101 4 114 17 16 16 16 17
-2 15 -11 -1 -69 -4 -130 -7z"/>
<path d="M3945 3135 c-5 -2 -23 -6 -39 -10 -52 -11 -13 -23 49 -14 92 13 145
0 198 -49 42 -40 32 -5 -12 39 -38 38 -40 39 -112 38 -41 0 -78 -2 -84 -4z"/>
<path d="M4700 3119 c0 -5 5 -7 10 -4 6 3 10 8 10 11 0 2 -4 4 -10 4 -5 0 -10
-5 -10 -11z"/>
<path d="M178 3113 c7 -3 16 -2 19 1 4 3 -2 6 -13 5 -11 0 -14 -3 -6 -6z"/>
<path d="M4550 3097 c0 -27 13 -36 26 -16 3 6 -1 18 -10 27 -15 15 -16 14 -16
-11z"/>
<path d="M2770 3070 c19 -12 47 -34 62 -48 32 -30 50 -22 22 9 -21 23 -55 43
-94 54 -20 5 -17 2 10 -15z"/>
<path d="M709 3054 c-17 -21 0 -49 32 -49 18 0 25 6 27 24 6 38 -34 55 -59 25z"/>
<path d="M3463 3046 c-25 -12 -30 -35 -12 -53 9 -9 9 -20 -1 -43 -7 -17 -10
-34 -6 -37 4 -4 9 3 13 15 3 12 11 22 18 22 10 0 35 75 35 105 0 8 -23 3 -47
-9z"/>
<path d="M3883 3026 c-47 -15 -113 -53 -113 -66 0 -5 7 -10 16 -12 13 -2 12
-7 -6 -25 -25 -27 -40 -29 -40 -7 0 14 -2 14 -16 3 -10 -8 -12 -15 -5 -17 6
-2 11 -8 11 -14 0 -5 -8 -7 -19 -3 -20 6 -38 -20 -21 -30 6 -4 6 -14 0 -26
-11 -19 -7 -20 122 -19 73 1 140 -1 149 -5 11 -4 18 1 22 15 5 19 2 21 -19 16
-14 -4 -24 -2 -24 4 0 5 5 10 10 10 6 0 10 9 10 20 0 11 -5 20 -11 20 -21 0
-4 45 19 48 22 3 30 26 12 37 -5 3 -19 1 -30 -5 -15 -8 -20 -8 -20 3 0 25 21
36 46 25 24 -11 29 -31 25 -90 -1 -19 4 -28 18 -33 12 -3 21 -11 21 -16 0 -5
10 1 22 13 13 13 22 28 20 34 -1 7 5 15 14 18 13 5 15 2 11 -14 -3 -11 -2 -20
3 -20 17 0 -13 -83 -32 -88 -31 -8 -20 -19 40 -40 31 -11 65 -23 75 -27 15 -6
17 -1 17 35 0 22 -4 39 -9 36 -5 -3 -12 1 -15 10 -9 23 -8 27 10 20 8 -3 13
-2 11 2 -3 4 -10 26 -16 50 -7 23 -26 58 -42 77 -29 32 -32 34 -52 20 -19 -13
-22 -12 -39 15 -10 17 -23 30 -28 30 -6 0 -9 -4 -6 -9 3 -5 -1 -12 -10 -15
-22 -8 -26 -8 -19 4 3 6 1 10 -5 10 -6 0 -8 5 -5 10 9 14 -51 11 -102 -4z
m287 -186 c0 -5 -4 -10 -10 -10 -5 0 -10 5 -10 10 0 6 5 10 10 10 6 0 10 -4
10 -10z"/>
<path d="M4720 3011 c0 -11 31 -24 39 -16 3 3 -1 10 -9 15 -19 12 -30 12 -30
1z"/>
<path d="M2119 2973 c-22 -20 -49 -54 -60 -76 -33 -64 -59 -184 -58 -266 l1
-76 13 85 c23 157 67 275 128 338 42 44 27 41 -24 -5z"/>
<path d="M2571 2960 c-79 -54 -141 -60 -233 -25 -12 5 -18 2 -18 -8 0 -23 123
-63 165 -53 30 8 165 96 165 108 0 17 -37 6 -79 -22z"/>
<path d="M2870 2985 c0 -3 11 -18 25 -32 13 -15 29 -40 36 -55 6 -15 15 -28
19 -28 3 0 7 -6 8 -12 1 -18 72 -186 72 -172 0 22 -41 140 -71 201 -17 35 -44
72 -60 84 -16 11 -29 18 -29 14z"/>
<path d="M4606 2932 l-19 -27 26 24 c28 26 32 31 20 31 -5 0 -17 -13 -27 -28z"/>
<path d="M2232 2913 c-7 -2 -17 -13 -22 -23 -10 -19 -9 -19 20 -2 39 22 41 41
2 25z"/>
<path d="M5320 2904 c0 -8 5 -12 10 -9 6 4 8 11 5 16 -9 14 -15 11 -15 -7z"/>
<path d="M4675 2895 c-47 -21 -80 -51 -66 -59 6 -4 11 -17 11 -30 0 -23 37
-66 57 -66 6 0 13 7 17 15 6 16 26 16 39 0 5 -6 7 0 4 13 -3 12 -1 20 4 16 5
-3 9 1 9 8 0 22 27 -26 33 -59 6 -28 4 -33 -13 -33 -11 0 -20 -4 -20 -10 0 -5
10 -8 23 -6 12 3 22 5 22 6 0 1 7 3 15 5 8 2 23 6 34 11 16 6 17 4 11 -17 -10
-31 -15 -36 -23 -22 -5 7 -13 9 -21 4 -9 -6 -4 -12 20 -20 46 -16 58 -14 70
12 9 20 9 20 5 -6 -3 -23 1 -30 22 -38 21 -8 29 -7 39 7 7 10 13 23 13 30 0
21 -44 61 -60 56 -11 -4 -10 -1 3 12 16 16 18 16 33 1 9 -9 23 -14 31 -11 8 3
11 1 8 -4 -3 -6 1 -10 9 -10 9 0 16 7 16 15 0 8 -5 15 -11 15 -5 0 -8 4 -5 8
14 23 -106 142 -143 142 -14 0 -14 -27 -1 -35 6 -3 10 -15 10 -26 0 -22 -28
-26 -36 -4 -4 8 -10 12 -15 9 -5 -3 -10 5 -11 18 -2 37 -3 42 -11 56 -14 21
-29 14 -22 -10 4 -16 4 -19 -3 -9 -5 7 -14 11 -20 7 -5 -3 -12 1 -16 9 -7 18
-22 18 -61 0z m5 -58 c0 -7 -4 -19 -10 -27 -7 -12 -12 -10 -29 9 -16 18 -18
27 -10 37 13 16 49 1 49 -19z m90 19 c0 -2 -7 -9 -15 -16 -13 -11 -14 -10 -9
4 5 14 24 23 24 12z"/>
<path d="M597 2886 c-9 -22 18 -40 33 -22 6 9 9 20 5 26 -9 15 -32 12 -38 -4z"/>
<path d="M3433 2885 c0 -8 4 -12 9 -9 5 3 6 10 3 15 -9 13 -12 11 -12 -6z"/>
<path d="M3024 2881 c3 -4 10 -21 16 -36 6 -15 13 -25 16 -22 6 6 -23 67 -32
67 -3 0 -3 -4 0 -9z"/>
<path d="M3370 2819 c-19 -39 -35 -74 -35 -78 0 -3 -15 -26 -33 -50 -34 -47
-37 -58 -22 -81 8 -12 10 -11 10 7 0 12 5 25 10 28 6 3 10 1 10 -5 0 -6 18 4
40 23 23 19 62 42 88 52 26 9 56 20 67 25 30 13 322 31 385 24 43 -4 52 -3 43
6 -16 17 -223 25 -293 11 -82 -15 -113 -22 -130 -28 -16 -6 -72 -4 -79 3 -2 2
2 11 9 19 7 9 15 29 17 46 2 24 -1 29 -17 29 -12 0 -24 9 -28 20 -6 17 -13 9
-42 -51z m30 -29 c0 -5 -4 -10 -10 -10 -5 0 -10 5 -10 10 0 6 5 10 10 10 6 0
10 -4 10 -10z"/>
<path d="M5000 2851 c0 -5 7 -14 15 -21 16 -14 18 -10 9 14 -6 17 -24 22 -24
7z"/>
<path d="M4000 2824 c0 -23 30 -41 50 -29 12 7 14 44 3 46 -45 8 -53 5 -53
-17z"/>
<path d="M5330 2821 c-6 -12 -17 -21 -24 -21 -24 0 -27 -42 -5 -63 24 -23 22
-25 38 41 14 57 10 77 -9 43z"/>
<path d="M1444 2814 c-7 -3 -9 -15 -6 -27 6 -23 31 -75 33 -67 3 18 8 37 14
53 4 10 4 17 -1 16 -22 -4 -33 2 -28 16 6 16 6 16 -12 9z"/>
<path d="M3065 2790 c4 -14 18 -63 31 -110 18 -65 23 -74 20 -40 -6 52 -35
150 -49 165 -6 6 -7 1 -2 -15z"/>
<path d="M5030 2803 c0 -5 7 -18 15 -29 13 -18 14 -18 8 4 -5 22 -23 41 -23
25z"/>
<path d="M585 2790 c4 -6 11 -8 16 -5 14 9 11 15 -7 15 -8 0 -12 -5 -9 -10z"/>
<path d="M2696 2780 c-17 -6 -18 -7 -3 -13 11 -4 16 -17 15 -42 -1 -33 -12
-47 -20 -24 -2 5 -12 12 -23 14 -11 2 -22 4 -24 4 -2 1 4 13 14 29 l17 27 -26
-27 c-14 -15 -23 -33 -21 -40 7 -19 -28 -55 -70 -73 -19 -7 -35 -18 -35 -23 0
-13 49 -22 56 -10 9 13 24 -1 17 -17 -6 -17 -7 -16 62 -20 56 -2 78 3 69 16
-3 5 -2 15 3 22 4 6 8 14 9 17 0 3 4 13 9 23 4 10 5 33 2 52 -3 19 -2 35 2 35
14 0 17 -72 6 -138 -9 -51 -30 -65 -84 -56 -37 6 -40 4 -47 -20 -3 -14 -13
-26 -21 -26 -8 0 -11 -5 -7 -11 4 -7 -1 -10 -12 -7 -12 2 -19 12 -19 25 -1 36
-22 51 -42 30 -10 -9 -13 -17 -8 -17 16 0 15 -50 -1 -51 -8 -1 -18 -3 -24 -4
-5 -1 -13 -3 -17 -4 -4 0 2 -8 13 -16 11 -8 14 -15 7 -15 -7 0 -13 -5 -13 -11
0 -7 9 -9 23 -6 33 9 48 -4 32 -26 -12 -17 -13 -17 -19 0 -6 15 -8 15 -16 3
-7 -10 -10 -11 -10 -2 0 6 -7 12 -15 12 -9 0 -15 10 -15 26 0 31 -20 28 -35
-4 -11 -24 -44 -29 -64 -9 -11 10 -13 9 -9 -3 3 -8 14 -16 26 -18 12 -2 22 -8
22 -13 0 -20 28 -38 51 -34 123 22 155 29 162 35 5 4 25 4 45 0 20 -5 62 -8
92 -7 49 2 55 4 60 27 3 14 14 27 24 28 14 3 17 0 13 -11 -3 -9 1 -18 9 -21 9
-3 12 -1 9 4 -3 6 3 10 14 10 17 0 21 -6 21 -34 0 -18 7 -39 15 -46 8 -7 15
-9 15 -6 0 4 9 2 19 -4 13 -7 22 -7 26 0 3 5 14 10 25 10 18 0 30 19 30 47 0
12 -3 13 -14 4 -12 -10 -17 -8 -25 7 -13 24 7 46 33 36 12 -5 16 0 16 22 0 43
-11 74 -24 74 -7 0 -19 11 -26 25 -7 14 -20 25 -27 25 -10 0 -11 -5 -5 -17 11
-21 10 -79 0 -75 -5 1 -24 2 -44 2 -28 0 -37 5 -41 20 -4 15 -11 19 -24 15
-18 -6 -24 7 -20 40 1 6 -5 2 -12 -7 -17 -22 -27 -23 -27 -3 0 8 -7 15 -16 15
-12 0 -14 7 -10 28 3 15 8 44 12 65 7 41 19 48 29 17 8 -25 22 -26 30 -1 12
40 86 34 100 -8 5 -17 33 -36 41 -28 2 2 -10 20 -27 40 -21 26 -39 37 -57 37
-34 0 -57 14 -48 29 13 21 -113 64 -148 51z m144 -89 c0 -5 -6 -14 -14 -20
-12 -10 -13 -8 -9 8 5 21 23 30 23 12z m-175 -171 c3 -5 -1 -10 -10 -10 -9 0
-13 5 -10 10 3 6 8 10 10 10 2 0 7 -4 10 -10z m345 -51 c0 -5 -4 -9 -10 -9 -5
0 -10 7 -10 16 0 8 5 12 10 9 6 -3 10 -10 10 -16z m-264 -8 c28 -22 21 -33
-15 -25 -53 12 -55 14 -35 29 24 18 22 18 50 -4z m-82 -26 c-3 -8 -17 -12 -32
-10 -15 1 -35 3 -44 4 -10 0 -18 5 -18 10 0 6 22 10 49 9 37 0 48 -3 45 -13z
m336 -5 c0 -5 -4 -10 -10 -10 -5 0 -10 5 -10 10 0 6 5 10 10 10 6 0 10 -4 10
-10z m-36 -15 c-4 -8 -10 -15 -15 -15 -5 0 -9 7 -9 15 0 8 7 15 15 15 9 0 12
-6 9 -15z"/>
<path d="M2580 2770 c-12 -8 -11 -10 8 -10 12 0 22 5 22 10 0 13 -11 13 -30 0z"/>
<path d="M4557 2763 c4 -11 8 -13 11 -5 2 7 8 10 12 7 5 -3 11 -2 14 3 2 4 -6
9 -19 10 -19 1 -23 -2 -18 -15z"/>
<path d="M3956 2761 c-3 -5 11 -11 32 -15 57 -9 70 -6 37 9 -35 16 -62 19 -69
6z"/>
<path d="M4251 2744 c0 -11 3 -14 6 -6 3 7 2 16 -1 19 -3 4 -6 -2 -5 -13z"/>
<path d="M2351 2741 c-9 -6 -10 -11 -2 -15 6 -4 15 -5 20 -2 5 3 11 -1 15 -9
11 -30 46 -11 46 26 0 11 -60 12 -79 0z"/>
<path d="M2457 2730 c9 -11 19 -17 21 -15 6 6 -18 35 -29 35 -5 0 -1 -9 8 -20z"/>
<path d="M4067 2739 c6 -6 17 -11 24 -13 8 -1 34 -12 58 -25 30 -16 47 -19 54
-12 10 10 -26 30 -63 35 -8 1 -28 8 -43 14 -35 15 -44 15 -30 1z"/>
<path d="M4530 2729 c0 -5 5 -7 10 -4 6 3 10 8 10 11 0 2 -4 4 -10 4 -5 0 -10
-5 -10 -11z"/>
<path d="M4725 2730 c3 -5 11 -10 16 -10 6 0 7 5 4 10 -3 6 -11 10 -16 10 -6
0 -7 -4 -4 -10z"/>
<path d="M5845 2705 c-71 -20 -152 -40 -178 -47 -48 -12 -49 -13 -44 -45 5
-30 4 -32 -14 -22 -28 15 -54 7 -54 -16 0 -14 -7 -20 -25 -21 -14 -1 -37 -5
-52 -9 -30 -8 -39 10 -16 33 6 6 9 15 5 18 -8 9 -138 -26 -133 -35 2 -3 -13
-5 -35 -3 -38 4 -39 3 -39 -27 0 -21 -5 -31 -15 -31 -13 0 -13 -4 -3 -22 22
-39 67 -66 54 -33 -3 8 -1 15 5 15 15 0 28 -43 17 -57 -6 -7 -5 -14 2 -18 5
-3 15 6 20 21 8 20 15 25 31 21 16 -4 32 6 64 41 29 31 39 49 32 54 -7 4 -2 6
11 5 12 -1 21 -6 18 -13 -3 -7 6 -11 20 -11 13 0 24 5 24 11 0 6 5 4 10 -4 7
-11 12 -12 21 -3 6 6 18 9 25 6 8 -3 14 0 14 7 0 6 6 10 12 8 7 -3 20 5 30 16
15 18 19 19 28 6 5 -8 10 -10 10 -4 0 6 11 12 25 12 23 0 32 -17 26 -52 -1 -5
9 -6 23 -4 14 3 23 1 20 -3 -3 -5 -14 -9 -25 -9 -10 0 -19 -5 -19 -11 0 -7
-12 -23 -27 -38 -26 -24 -27 -26 -8 -28 30 -4 240 53 227 61 -7 4 -12 4 -12
-1 0 -4 -9 7 -20 25 -11 17 -24 32 -30 32 -5 0 -10 5 -10 10 0 6 10 8 23 5 17
-5 32 3 59 29 22 21 47 36 61 36 15 0 28 9 37 25 14 27 50 34 50 11 0 -8 7
-17 16 -20 23 -9 14 -59 -12 -66 -13 -3 -20 -12 -18 -22 2 -14 -5 -18 -26 -18
-24 0 -40 -15 -40 -38 0 -4 33 -7 73 -7 46 -1 86 -7 111 -18 l40 -18 -49 -49
c-27 -28 -46 -50 -42 -50 4 0 -1 -10 -13 -22 -11 -12 -20 -28 -20 -36 0 -9 -6
-12 -16 -8 -26 10 -64 -4 -64 -25 0 -12 -7 -19 -18 -19 -28 0 -102 -52 -102
-72 0 -24 -19 -23 -46 3 -21 20 -23 20 -55 3 -19 -9 -57 -32 -86 -51 -48 -32
-52 -37 -46 -65 5 -25 1 -34 -18 -49 -27 -21 -75 -26 -63 -8 4 7 -6 4 -23 -6
-51 -30 -57 -49 -24 -84 20 -21 38 -31 59 -31 32 0 55 -29 24 -31 -70 -6 -132
16 -132 48 0 45 -117 -119 -158 -222 -38 -97 -47 -120 -45 -127 13 -39 12 -73
-3 -89 -17 -19 -12 -39 10 -39 8 0 13 -6 12 -14 -3 -39 24 -11 69 69 71 128
108 183 125 188 8 2 21 17 29 33 7 16 17 37 22 46 5 11 4 18 -3 20 -8 3 -4 13
10 28 19 20 25 22 47 12 21 -10 25 -9 25 3 0 8 -5 15 -12 15 -7 0 3 11 22 25
19 14 41 25 51 25 17 0 49 30 33 30 -5 0 -1 5 10 11 13 8 20 8 25 1 8 -13 60
-9 69 5 4 6 54 33 112 61 132 65 171 89 169 105 -5 29 14 67 33 67 15 0 18 -5
13 -22 -5 -17 5 -11 40 25 28 29 43 52 39 59 -5 8 -9 8 -11 1 -2 -5 -15 -8
-29 -5 -17 3 -31 -2 -45 -17 -22 -23 -38 -29 -20 -7 8 10 9 16 1 21 -5 3 -10
11 -10 17 0 7 5 6 14 -1 12 -10 18 -7 31 13 14 20 21 24 35 16 10 -6 31 -10
46 -10 22 0 25 2 14 15 -10 12 -10 15 3 15 8 0 17 9 20 21 4 16 3 18 -9 8 -8
-6 -14 -8 -14 -3 0 4 -7 -1 -15 -12 -13 -17 -14 -17 -15 -1 0 9 -9 26 -20 37
-24 24 -14 27 11 4 16 -14 20 -13 51 16 32 31 33 35 36 120 2 50 -1 96 -7 108
-15 28 -49 35 -56 11 -7 -21 -20 -25 -31 -7 -5 7 -3 8 7 3 11 -7 12 -6 3 6 -9
11 -7 21 7 44 33 54 34 57 4 79 -79 59 -207 62 -400 11z m-115 -65 c0 -5 -4
-10 -9 -10 -6 0 -13 5 -16 10 -3 6 1 10 9 10 9 0 16 -4 16 -10z m270 0 c0 -5
-7 -10 -15 -10 -8 0 -15 5 -15 10 0 6 7 10 15 10 8 0 15 -4 15 -10z m-76 -35
c-6 -16 -24 -21 -24 -7 0 11 11 22 21 22 5 0 6 -7 3 -15z m-81 -87 c8 -12 8
-24 -1 -42 -13 -29 -46 -37 -35 -9 5 11 3 14 -6 8 -10 -6 -11 -3 -1 15 6 12 9
28 6 37 -8 20 24 13 37 -9z m-420 -28 c3 -11 1 -20 -4 -20 -5 0 -9 7 -9 15 0
8 -4 15 -10 15 -5 0 -10 7 -10 16 0 22 26 1 33 -26z m604 -302 c-3 -8 -6 -5
-6 6 -1 11 2 17 5 13 3 -3 4 -12 1 -19z m41 -79 c17 -27 5 -40 -14 -15 -8 11
-14 23 -14 28 0 15 15 8 28 -13z m-321 -91 c-3 -8 -6 -5 -6 6 -1 11 2 17 5 13
3 -3 4 -12 1 -19z m-365 -393 c3 -13 2 -22 -3 -20 -4 3 -9 2 -12 -2 -2 -5 -2
-3 -1 4 2 7 -1 15 -7 18 -5 4 -7 11 -4 16 11 16 23 10 27 -16z"/>
<path d="M1930 2649 c-7 -50 -8 -85 -2 -91 5 -5 11 25 15 79 4 48 5 89 3 90
-2 2 -9 -33 -16 -78z"/>
<path d="M4588 2706 c-23 -17 -23 -26 0 -26 11 0 18 7 18 20 0 11 0 20 -1 20
0 0 -8 -7 -17 -14z"/>
<path d="M1506 2701 c-3 -5 1 -11 9 -15 9 -3 15 0 15 9 0 16 -16 20 -24 6z"/>
<path d="M4704 2697 c-8 -21 -3 -29 13 -19 8 5 9 13 3 22 -7 12 -10 12 -16 -3z"/>
<path d="M2210 2685 c-7 -8 -9 -22 -6 -31 5 -12 2 -15 -11 -10 -19 8 -83 -48
-83 -73 0 -11 4 -10 20 4 19 18 20 17 22 -6 0 -13 2 -31 2 -39 2 -17 -44 -80
-58 -80 -6 0 -5 5 2 12 12 12 -1 48 -17 48 -26 0 -35 -220 -10 -236 5 -3 9 0
9 6 0 11 24 40 33 40 2 0 2 -11 -1 -25 -2 -14 -7 -25 -11 -25 -12 0 1 -70 13
-72 43 -6 66 -2 66 10 0 9 -9 12 -27 10 -37 -4 -42 24 -9 45 30 20 49 14 65
-19 6 -14 16 -22 21 -19 17 11 11 23 -20 42 -34 19 -39 32 -12 31 9 0 25 3 34
6 13 6 15 3 11 -13 -4 -15 -1 -21 11 -21 9 0 16 5 16 11 0 8 5 7 15 -1 13 -11
14 -10 8 6 -5 16 -4 17 8 7 11 -9 20 -8 39 2 14 8 19 14 12 15 -13 0 -47 28
-47 39 0 3 -13 6 -30 6 -27 0 -30 3 -27 28 3 26 1 28 -20 21 -19 -6 -21 -4
-11 7 9 12 4 14 -33 12 -37 -1 -44 2 -44 18 0 22 1 23 35 7 38 -17 50 0 34 51
-11 36 -10 43 6 62 19 19 19 20 26 1 6 -16 14 -18 58 -12 51 6 70 15 59 26 -4
3 -15 1 -25 -4 -15 -8 -18 -6 -20 14 -6 63 -6 62 -31 53 -32 -12 -56 5 -42 31
16 29 -8 41 -30 15z m30 -76 c0 -9 -51 -22 -57 -15 -3 2 -2 9 1 14 6 11 56 11
56 1z m-110 -213 c0 -3 -4 -8 -10 -11 -5 -3 -10 -1 -10 4 0 6 5 11 10 11 6 0
10 -2 10 -4z m40 -41 c5 3 10 1 10 -5 0 -8 6 -8 21 0 37 20 31 3 -7 -21 -26
-16 -39 -19 -42 -11 -2 7 -8 10 -12 7 -5 -3 -11 -1 -15 5 -3 5 -1 10 5 10 7 0
9 7 6 16 -5 14 -4 15 8 5 8 -7 20 -10 26 -6z m-34 -72 c-10 -10 -19 5 -10 18
6 11 8 11 12 0 2 -7 1 -15 -2 -18z"/>
<path d="M2451 2687 c-9 -12 -10 -17 -2 -17 9 0 9 -5 1 -20 -6 -11 -7 -21 -3
-21 4 -1 15 -2 23 -3 9 0 14 -10 13 -22 -1 -13 4 -21 13 -21 8 0 13 5 11 11
-3 6 2 19 11 28 14 17 13 19 -16 29 -19 6 -32 19 -34 31 -3 20 -4 20 -17 5z"/>
<path d="M2555 2691 c-6 -11 9 -23 19 -14 9 9 7 23 -3 23 -6 0 -12 -4 -16 -9z"/>
<path d="M2275 2680 c-3 -5 -1 -10 4 -10 6 0 11 5 11 10 0 6 -2 10 -4 10 -3 0
-8 -4 -11 -10z"/>
<path d="M4518 2683 c7 -3 16 -2 19 1 4 3 -2 6 -13 5 -11 0 -14 -3 -6 -6z"/>
<path d="M1501 2646 c12 -20 57 -74 100 -119 43 -45 79 -85 79 -88 0 -12 -161
-26 -323 -28 -104 -1 -107 -2 -97 -21 7 -13 7 -26 1 -38 -12 -23 9 -52 37 -49
27 2 38 37 11 37 -12 0 -16 -5 -13 -15 7 -17 -11 -21 -21 -5 -4 6 7 23 24 39
17 16 34 25 37 20 3 -5 8 -7 12 -5 4 2 7 -9 8 -25 1 -34 3 -36 29 -41 14 -2
20 3 20 16 0 11 6 21 12 23 9 3 10 10 4 21 -8 15 -3 17 31 16 26 -1 44 -7 50
-18 5 -9 16 -16 23 -16 9 0 15 -10 15 -25 0 -31 18 -33 30 -2 5 12 9 16 9 10
1 -7 9 -13 19 -13 25 0 22 -55 -4 -75 -18 -13 -16 -14 21 -15 23 0 47 6 53 12
10 10 14 10 20 0 5 -7 15 6 26 38 14 38 23 50 40 51 11 0 36 2 54 5 44 5 71
-18 47 -42 -13 -13 -18 -14 -31 -4 -12 11 -17 10 -28 -6 -18 -23 -10 -37 15
-29 14 5 17 2 13 -9 -3 -8 3 -19 14 -25 22 -11 32 2 32 40 0 10 7 19 15 19 9
0 15 -9 15 -22 0 -12 3 -18 7 -14 4 3 12 -6 19 -21 11 -25 12 -25 10 -5 -4 41
-84 137 -224 268 -75 71 -132 123 -127 115 6 -11 4 -13 -9 -8 -10 4 -23 7 -29
8 -7 0 -2 4 11 10 13 5 21 13 17 18 -3 6 -13 7 -21 4 -13 -5 -15 -1 -9 15 4
15 2 22 -7 22 -7 0 -23 3 -36 6 l-23 7 22 -37z"/>
<path d="M4770 2670 c0 -5 5 -10 11 -10 5 0 7 5 4 10 -3 6 -8 10 -11 10 -2 0
-4 -4 -4 -10z"/>
<path d="M5005 2644 c4 -10 8 -27 9 -37 0 -11 16 -27 38 -38 21 -11 38 -18 38
-15 0 13 -43 96 -50 96 -4 0 -16 3 -26 7 -14 5 -16 3 -9 -13z"/>
<path d="M4470 2634 c0 -14 8 -16 47 -10 72 10 78 26 10 26 -46 0 -57 -3 -57
-16z"/>
<path d="M5283 2637 c-29 -13 -29 -23 -2 -37 25 -14 31 -9 27 23 -3 21 -6 23
-25 14z"/>
<path d="M2348 2623 c7 -3 16 -2 19 1 4 3 -2 6 -13 5 -11 0 -14 -3 -6 -6z"/>
<path d="M4775 2620 c3 -5 15 -10 26 -10 11 0 17 5 14 10 -3 6 -15 10 -26 10
-11 0 -17 -4 -14 -10z"/>
<path d="M4900 2592 c0 -5 11 -14 25 -20 26 -12 33 -4 13 16 -14 14 -38 16
-38 4z"/>
<path d="M2870 2570 c0 -5 7 -10 15 -10 8 0 15 5 15 10 0 6 -7 10 -15 10 -8 0
-15 -4 -15 -10z"/>
<path d="M4965 2560 c3 -5 8 -10 11 -10 2 0 4 5 4 10 0 6 -5 10 -11 10 -5 0
-7 -4 -4 -10z"/>
<path d="M2375 2550 c3 -5 8 -10 11 -10 2 0 4 5 4 10 0 6 -5 10 -11 10 -5 0
-7 -4 -4 -10z"/>
<path d="M2990 2550 c0 -5 5 -10 10 -10 6 0 10 5 10 10 0 6 -4 10 -10 10 -5 0
-10 -4 -10 -10z"/>
<path d="M5002 2548 c2 -6 10 -14 16 -16 7 -2 10 2 6 12 -7 18 -28 22 -22 4z"/>
<path d="M5050 2530 c0 -5 5 -10 10 -10 6 0 10 5 10 10 0 6 -4 10 -10 10 -5 0
-10 -4 -10 -10z"/>
<path d="M2002 2500 c0 -19 2 -27 5 -17 2 9 2 25 0 35 -3 9 -5 1 -5 -18z"/>
<path d="M2240 2512 c0 -5 7 -17 15 -28 21 -27 18 -36 -7 -29 -21 6 -22 5 -6
-8 10 -8 15 -16 12 -19 -3 -4 -1 -9 5 -13 7 -3 11 2 11 14 0 12 5 21 10 21 16
0 12 25 -9 48 -19 23 -31 28 -31 14z"/>
<path d="M2300 2509 c0 -8 5 -21 10 -29 8 -12 9 -10 7 7 -4 26 -17 43 -17 22z"/>
<path d="M2487 2513 c-4 -3 -7 -11 -7 -17 0 -6 5 -5 12 2 6 6 9 14 7 17 -3 3
-9 2 -12 -2z"/>
<path d="M2577 2513 c-4 -3 -7 -11 -7 -17 0 -6 5 -5 12 2 6 6 9 14 7 17 -3 3
-9 2 -12 -2z"/>
<path d="M3227 2512 c-18 -4 -51 -68 -42 -82 3 -5 14 -6 25 -3 24 6 28 -21 5
-34 -13 -8 -13 -17 6 -73 38 -117 78 -181 109 -173 19 5 19 6 1 42 -45 89 -73
186 -72 253 0 71 -3 77 -32 70z"/>
<path d="M5105 2500 c3 -5 8 -10 11 -10 2 0 4 5 4 10 0 6 -5 10 -11 10 -5 0
-7 -4 -4 -10z"/>
<path d="M5135 2491 c-3 -5 -1 -12 5 -16 5 -3 10 1 10 9 0 18 -6 21 -15 7z"/>
<path d="M5592 2458 c-7 -7 -12 -21 -11 -32 0 -15 2 -17 6 -6 3 8 12 23 21 33
17 19 3 24 -16 5z"/>
<path d="M1936 2430 c8 -43 14 -51 14 -19 0 13 -5 31 -10 39 -7 11 -8 5 -4
-20z"/>
<path d="M5631 2421 c-13 -10 -22 -23 -20 -29 6 -17 53 9 57 31 4 22 -7 21
-37 -2z"/>
<path d="M1070 2420 c0 -5 5 -10 10 -10 6 0 10 5 10 10 0 6 -4 10 -10 10 -5 0
-10 -4 -10 -10z"/>
<path d="M3150 2347 c-35 -136 -58 -204 -93 -272 -48 -93 -119 -176 -189 -221
-36 -23 -37 -25 -20 -43 16 -17 19 -17 47 -2 17 10 30 26 30 37 0 14 6 18 23
16 18 -3 22 2 22 23 0 19 4 26 14 22 18 -7 40 18 30 34 -4 8 -3 9 4 5 16 -9
51 50 45 75 -4 12 0 19 10 19 21 0 44 57 28 73 -16 16 -14 27 8 27 19 0 32 30
75 163 14 45 14 49 -4 67 -19 19 -20 19 -30 -23z m-200 -457 c0 -5 -5 -10 -11
-10 -5 0 -7 5 -4 10 3 6 8 10 11 10 2 0 4 -4 4 -10z m-40 -44 c0 -3 -4 -8 -10
-11 -5 -3 -10 -1 -10 4 0 6 5 11 10 11 6 0 10 -2 10 -4z"/>
<path d="M3690 2370 c-8 -5 -10 -10 -5 -10 6 0 17 5 25 10 8 5 11 10 5 10 -5
0 -17 -5 -25 -10z"/>
<path d="M5520 2370 c-13 -8 -12 -10 3 -10 9 0 17 5 17 10 0 12 -1 12 -20 0z"/>
<path d="M3618 2343 c-15 -17 -33 -63 -25 -63 2 0 18 18 36 40 20 25 27 40 18
40 -8 0 -21 -8 -29 -17z"/>
<path d="M3850 2340 l-25 -8 25 0 c14 0 34 3 45 8 l20 9 -20 -1 c-11 0 -31 -4
-45 -8z"/>
<path d="M5317 2333 c-2 -4 -1 -17 3 -28 7 -19 8 -19 15 -2 8 18 -9 46 -18 30z"/>
<path d="M3087 2294 c-9 -57 -44 -87 -94 -81 -21 2 -51 10 -66 16 -16 6 -44
11 -63 11 -33 0 -34 -1 -19 -16 9 -10 26 -18 38 -19 150 -18 141 -19 175 10
30 25 50 77 40 107 -3 7 -8 -5 -11 -28z"/>
<path d="M6570 2309 c0 -5 5 -7 10 -4 6 3 10 8 10 11 0 2 -4 4 -10 4 -5 0 -10
-5 -10 -11z"/>
<path d="M3723 2303 c-17 -6 -16 -33 1 -33 17 0 38 24 29 33 -7 8 -12 8 -30 0z"/>
<path d="M1353 2284 c-6 -16 13 -38 40 -47 6 -2 5 -12 -2 -26 -10 -17 -10 -26
-2 -34 15 -15 46 4 46 29 0 11 10 21 25 25 23 6 23 7 3 8 -12 1 -34 15 -50 31
-31 34 -51 38 -60 14z"/>
<path d="M1250 2265 c7 -8 21 -15 32 -15 17 0 18 3 8 15 -7 8 -21 15 -32 15
-17 0 -18 -3 -8 -15z"/>
<path d="M1755 2260 c3 -5 8 -10 11 -10 2 0 4 5 4 10 0 6 -5 10 -11 10 -5 0
-7 -4 -4 -10z"/>
<path d="M3587 2251 c-4 -17 -3 -21 5 -13 5 5 8 16 6 23 -3 8 -7 3 -11 -10z"/>
<path d="M5335 2250 c3 -5 8 -10 11 -10 2 0 4 5 4 10 0 6 -5 10 -11 10 -5 0
-7 -4 -4 -10z"/>
<path d="M6325 2250 c-3 -5 3 -10 15 -10 12 0 18 5 15 10 -3 6 -10 10 -15 10
-5 0 -12 -4 -15 -10z"/>
<path d="M2590 2233 c-184 -27 -271 -54 -378 -118 -31 -19 -66 -35 -76 -35
-11 0 -36 18 -57 40 -21 22 -36 32 -32 23 10 -31 55 -72 84 -78 21 -5 52 4
116 33 95 43 193 75 261 87 29 5 42 12 43 23 0 14 2 13 9 -3 8 -19 9 -19 9 -1
1 14 6 17 24 11 24 -8 156 -7 170 2 4 2 3 11 -4 19 -13 15 -44 15 -169 -3z"/>
<path d="M2778 2243 c7 -3 16 -2 19 1 4 3 -2 6 -13 5 -11 0 -14 -3 -6 -6z"/>
<path d="M3656 2177 c-14 -60 -23 -268 -12 -256 2 2 7 36 10 74 9 118 30 215
47 215 6 0 8 -17 3 -45 -5 -36 -3 -50 11 -65 9 -10 14 -24 10 -29 -3 -6 1 -18
9 -27 20 -19 20 -29 0 -48 -11 -11 -14 -25 -9 -46 4 -17 10 -30 13 -30 4 0 8
-14 8 -32 1 -17 9 -37 19 -44 9 -7 14 -17 11 -23 -8 -12 53 -141 66 -141 4 0
8 -6 8 -14 0 -7 9 -16 21 -19 12 -3 18 -10 14 -17 -4 -6 3 -22 16 -36 24 -25
67 -32 86 -13 8 8 13 8 17 0 4 -6 0 -11 -8 -11 -20 0 -20 -2 4 -43 27 -45 80
-69 168 -75 67 -4 72 -3 72 15 0 16 5 19 24 16 16 -4 23 -10 19 -20 -8 -20 34
-9 124 32 53 25 71 38 67 49 -4 10 0 13 14 10 13 -4 38 13 85 59 63 61 66 66
62 102 -5 33 -3 36 10 25 12 -10 15 -9 15 5 0 11 5 15 14 12 15 -6 76 74 76
99 0 7 12 30 26 51 18 26 24 46 20 64 -4 21 -1 28 14 32 14 3 20 -1 22 -17 5
-38 23 -18 26 31 3 42 2 45 -13 33 -15 -12 -19 -12 -30 4 -12 16 -18 15 -88
-19 -116 -57 -212 -71 -371 -57 -72 7 -148 17 -170 23 -31 8 -41 8 -47 -3 -7
-10 -9 -9 -9 5 0 9 -6 17 -14 17 -8 0 -47 11 -87 25 -39 13 -67 19 -61 13 19
-19 14 -37 -8 -31 -27 7 -34 21 -20 38 8 10 9 15 2 15 -6 0 -14 -5 -17 -10 -9
-15 -26 -2 -23 17 4 21 -30 43 -40 26 -5 -8 -18 -9 -42 -3 -19 4 -30 8 -24 9
7 1 14 12 16 25 7 36 -58 98 -106 101 l-35 2 -15 -70z m84 18 c0 -8 -4 -15
-10 -15 -5 0 -10 7 -10 15 0 8 5 15 10 15 6 0 10 -7 10 -15z m130 -185 c0 -5
-4 -10 -10 -10 -5 0 -10 5 -10 10 0 6 5 10 10 10 6 0 10 -4 10 -10z m-65 -27
c51 -24 43 -49 -14 -46 -51 2 -74 18 -43 28 13 4 19 12 15 21 -7 18 -2 18 42
-3z m294 -20 c9 -15 12 -16 20 -4 7 12 17 8 49 -17 32 -26 45 -30 63 -23 15 5
31 4 44 -3 11 -6 21 -12 23 -13 2 -1 -4 -13 -13 -27 -9 -14 -18 -33 -19 -43
-2 -10 -10 -17 -17 -16 -12 1 -77 24 -88 30 -2 1 5 10 15 20 17 17 16 18 -18
21 -25 2 -41 11 -52 28 -9 13 -23 24 -31 24 -15 0 -20 21 -8 33 11 11 21 8 32
-10z m641 3 c0 -11 -19 -15 -25 -6 -3 5 1 10 9 10 9 0 16 -2 16 -4z m-310 -43
c0 -5 -4 -15 -10 -23 -11 -18 -25 -7 -17 15 6 15 27 21 27 8z m248 -16 c2 -10
-3 -17 -12 -17 -18 0 -29 16 -21 31 9 14 29 6 33 -14z m-838 -2 c0 -8 -7 -15
-15 -15 -8 0 -15 7 -15 15 0 8 7 15 15 15 8 0 15 -7 15 -15z m48 -12 c-5 -25
-28 -28 -28 -4 0 12 6 21 16 21 9 0 14 -7 12 -17z m62 -52 c5 -11 10 -28 10
-39 0 -11 9 -22 20 -25 13 -3 18 -10 14 -21 -8 -22 -31 -20 -44 4 -6 11 -17
20 -25 20 -15 0 -30 53 -20 70 10 16 33 12 45 -9z m500 3 c0 -9 -7 -14 -17
-12 -25 5 -28 28 -4 28 12 0 21 -6 21 -16z m40 6 c0 -5 -4 -10 -10 -10 -5 0
-10 5 -10 10 0 6 5 10 10 10 6 0 10 -4 10 -10z m-287 -31 l22 0 -22 -11 c-24
-12 -53 -5 -53 13 0 6 7 8 16 5 9 -3 25 -6 37 -7z m291 -37 c-4 -12 -11 -22
-16 -22 -6 0 -7 8 -4 17 4 9 1 20 -5 24 -6 4 -8 12 -4 19 12 20 35 -11 29 -38z
m-214 -2 c-1 -3 -7 -16 -15 -30 -18 -32 -18 -40 -1 -40 9 0 16 12 18 32 3 26
7 32 31 33 30 1 33 -5 15 -23 -9 -9 -7 -12 11 -12 20 0 21 -2 11 -15 -7 -8
-19 -15 -26 -15 -8 0 -11 -6 -8 -15 4 -9 0 -15 -9 -15 -8 0 -20 -6 -26 -14 -9
-11 -8 -18 5 -30 20 -20 11 -34 -10 -17 -8 7 -24 10 -36 6 -12 -4 -20 -2 -20
5 0 6 -4 9 -9 6 -12 -8 -54 40 -49 56 3 7 19 13 37 14 44 2 48 10 20 33 l-24
20 27 1 c20 0 26 4 22 14 -4 10 1 14 15 13 12 -1 21 -4 21 -7z m-176 -58 c-7
-10 -24 -17 -40 -17 -24 0 -30 5 -32 28 -3 21 2 29 20 36 32 12 68 -21 52 -47z
m-209 38 c3 -5 -1 -10 -10 -10 -9 0 -13 5 -10 10 3 6 8 10 10 10 2 0 7 -4 10
-10z m505 -60 c0 -5 -2 -10 -4 -10 -3 0 -8 5 -11 10 -3 6 -1 10 4 10 6 0 11
-4 11 -10z m54 -17 c9 -22 -10 -41 -25 -26 -13 13 -5 43 10 43 5 0 12 -8 15
-17z m-114 -39 c0 -8 -4 -14 -10 -14 -5 0 -10 9 -10 21 0 11 5 17 10 14 6 -3
10 -13 10 -21z m-232 -7 c3 -12 -4 -17 -21 -17 -32 0 -40 10 -19 26 21 16 36
13 40 -9z m327 -18 c-4 -12 -1 -21 9 -25 23 -9 20 -27 -9 -54 l-25 -23 0 21
c0 26 -7 28 -31 6 -18 -16 -44 -11 -33 7 3 5 1 15 -5 22 -15 19 9 60 39 67 39
10 62 1 55 -21z m88 -19 c-3 -11 -9 -17 -14 -15 -10 7 -1 35 11 35 5 0 6 -9 3
-20z m-423 -5 c9 -10 9 -15 1 -15 -6 0 -11 -5 -11 -11 0 -5 5 -7 11 -3 6 3 3
-5 -6 -20 -10 -15 -14 -30 -10 -34 4 -4 10 -1 12 6 7 17 23 15 23 -4 0 -30
-44 -11 -61 26 -25 53 7 96 41 55z m61 -1 c10 -13 10 -17 -2 -25 -18 -12 -26
-11 -34 1 -8 13 1 40 13 40 5 0 15 -7 23 -16z m119 -44 c0 -5 -7 -10 -15 -10
-8 0 -15 5 -15 10 0 6 7 10 15 10 8 0 15 -4 15 -10z m-90 -44 c0 -24 -18 -28
-30 -6 -9 17 -8 20 10 20 11 0 20 -6 20 -14z"/>
<path d="M4207 1888 c6 -11 43 -10 43 1 0 5 -11 8 -24 7 -13 0 -22 -4 -19 -8z"/>
<path d="M4270 1689 c0 -5 5 -7 10 -4 6 3 10 8 10 11 0 2 -4 4 -10 4 -5 0 -10
-5 -10 -11z"/>
<path d="M4180 2229 c0 -14 41 -48 58 -49 6 0 12 4 12 10 0 5 7 7 15 4 8 -4
15 -1 15 5 0 6 -8 11 -17 11 -10 0 -27 7 -37 15 -23 18 -46 20 -46 4z"/>
<path d="M1340 2220 c0 -5 5 -10 10 -10 6 0 10 5 10 10 0 6 -4 10 -10 10 -5 0
-10 -4 -10 -10z"/>
<path d="M1491 2203 c0 -25 1 -26 9 -8 12 27 12 35 0 35 -5 0 -10 -12 -9 -27z"/>
<path d="M4342 2213 c-25 -5 -52 -43 -30 -43 31 0 57 13 61 31 3 10 2 18 -1
18 -4 -1 -17 -4 -30 -6z"/>
<path d="M4500 2195 c13 -14 25 -25 27 -25 9 0 1 20 -13 34 -26 26 -39 18 -14
-9z"/>
<path d="M1713 2203 c-20 -8 -15 -23 7 -23 11 0 20 7 20 15 0 15 -6 17 -27 8z"/>
<path d="M1878 2203 c7 -3 16 -2 19 1 4 3 -2 6 -13 5 -11 0 -14 -3 -6 -6z"/>
<path d="M3581 2194 c0 -11 3 -14 6 -6 3 7 2 16 -1 19 -3 4 -6 -2 -5 -13z"/>
<path d="M1940 2190 c-13 -8 -13 -11 2 -26 9 -9 24 -14 32 -11 14 6 14 10 4
27 -14 23 -17 23 -38 10z"/>
<path d="M4740 2158 c25 -24 50 -42 57 -40 6 2 10 -4 10 -14 -1 -11 6 -18 21
-19 12 -1 22 2 22 6 0 13 -70 68 -113 90 l-42 21 45 -44z"/>
<path d="M1523 2176 c5 -15 47 -20 47 -5 0 9 4 8 15 -1 10 -8 15 -9 15 -1 0
11 -31 21 -63 19 -10 -1 -16 -6 -14 -12z"/>
<path d="M6301 2177 c-16 -16 7 -41 25 -26 8 6 14 15 14 19 0 14 -27 19 -39 7z"/>
<path d="M4875 2160 c10 -11 22 -17 27 -14 5 3 1 12 -9 20 -27 20 -39 17 -18
-6z"/>
<path d="M1455 2160 c-16 -6 -14 -8 13 -7 17 0 32 4 32 9 0 10 -18 9 -45 -2z"/>
<path d="M1368 2153 c7 -3 16 -2 19 1 4 3 -2 6 -13 5 -11 0 -14 -3 -6 -6z"/>
<path d="M3350 2126 c0 -10 -6 -13 -17 -9 -14 6 -14 3 3 -25 10 -18 24 -32 31
-32 7 0 13 -6 13 -14 0 -8 9 -13 24 -12 l24 1 -27 37 c-14 20 -29 34 -33 32
-4 -3 -5 1 -2 9 3 8 1 18 -5 22 -6 3 -11 -1 -11 -9z"/>
<path d="M4916 2107 c3 -10 9 -15 12 -12 3 3 0 11 -7 18 -10 9 -11 8 -5 -6z"/>
<path d="M4941 2094 c0 -11 3 -14 6 -6 3 7 2 16 -1 19 -3 4 -6 -2 -5 -13z"/>
<path d="M2015 2090 c-4 -6 -11 -7 -17 -4 -5 4 -2 -5 7 -20 20 -31 30 -26
-124 -55 -72 -14 -140 -34 -189 -56 -91 -42 -189 -115 -171 -126 7 -4 20 -4
28 0 9 5 22 6 29 4 7 -3 19 0 26 6 10 8 19 6 38 -8 16 -13 33 -18 47 -14 28 7
58 -27 35 -40 -8 -5 -12 -12 -9 -17 3 -5 0 -18 -7 -29 -14 -24 -8 -34 16 -25
11 4 15 13 11 25 -4 11 -3 20 2 20 4 1 19 3 33 4 14 2 40 6 59 10 27 6 32 5
26 -5 -6 -10 2 -11 41 -6 119 17 163 28 157 42 -8 21 44 30 66 10 14 -13 26
-14 67 -7 44 9 53 7 87 -15 20 -13 60 -33 88 -45 99 -38 314 -38 360 2 13 11
30 17 43 14 31 -8 49 8 41 35 -5 17 -12 20 -28 15 -136 -42 -291 -49 -390 -15
-34 11 -79 30 -99 43 -44 26 -176 139 -177 150 -1 9 -80 117 -86 117 -2 0 -7
-5 -10 -10z m38 -122 c-4 -20 2 -25 41 -37 45 -13 64 -27 52 -38 -3 -3 -12 0
-21 7 -8 7 -22 10 -30 6 -8 -3 -15 -1 -15 5 0 6 -4 8 -9 5 -5 -3 -14 1 -21 9
-7 8 -19 15 -26 15 -8 0 -14 5 -14 10 0 6 7 10 15 10 8 0 15 9 15 21 0 11 4
18 9 15 4 -3 6 -16 4 -28z m42 -109 c-8 -12 -35 -12 -35 0 0 11 22 20 33 14 4
-2 5 -9 2 -14z"/>
<path d="M5310 2070 c0 -5 5 -10 11 -10 5 0 7 5 4 10 -3 6 -8 10 -11 10 -2 0
-4 -4 -4 -10z"/>
<path d="M4936 2057 c3 -10 9 -15 12 -12 3 3 0 11 -7 18 -10 9 -11 8 -5 -6z"/>
<path d="M6153 2034 c-9 -24 10 -49 38 -49 27 0 37 28 19 50 -17 20 -49 19
-57 -1z"/>
<path d="M3428 1964 c-12 -12 44 -104 63 -104 14 0 19 -8 20 -27 1 -49 5 -67
29 -130 21 -60 50 -85 50 -45 0 74 -106 312 -139 312 -10 0 -20 -3 -23 -6z"/>
<path d="M4920 1969 c0 -2 -7 -26 -15 -54 -9 -27 -11 -45 -6 -40 13 15 34 85
27 92 -3 4 -6 4 -6 2z"/>
<path d="M5138 1863 c-71 -60 -77 -84 -16 -64 40 13 123 94 114 110 -13 20
-30 11 -98 -46z"/>
<path d="M6720 1910 c0 -5 5 -10 11 -10 5 0 7 5 4 10 -3 6 -8 10 -11 10 -2 0
-4 -4 -4 -10z"/>
<path d="M4816 1898 c-11 -36 -13 -58 -6 -58 11 0 16 8 24 43 6 27 -11 40 -18
15z"/>
<path d="M2579 1870 c-27 -22 -15 -27 16 -7 11 7 36 12 57 12 20 0 34 3 31 8
-9 15 -81 7 -104 -13z"/>
<path d="M5520 1875 c0 -8 5 -15 10 -15 6 0 10 7 10 15 0 8 -4 15 -10 15 -5 0
-10 -7 -10 -15z"/>
<path d="M5896 1832 c-3 -6 -1 -14 5 -17 15 -10 25 3 12 16 -7 7 -13 7 -17 1z"/>
<path d="M3710 1821 c0 -6 4 -13 10 -16 6 -3 7 1 4 9 -7 18 -14 21 -14 7z"/>
<path d="M1500 1806 c0 -2 7 -7 16 -10 8 -3 12 -2 9 4 -6 10 -25 14 -25 6z"/>
<path d="M1473 1773 c-24 -9 -13 -25 15 -22 15 2 32 1 37 -2 21 -13 64 -19 69
-10 9 14 -17 29 -46 26 -16 -2 -30 1 -34 6 -6 10 -21 11 -41 2z"/>
<path d="M4781 1754 c0 -11 3 -14 6 -6 3 7 2 16 -1 19 -3 4 -6 -2 -5 -13z"/>
<path d="M1417 1723 c-41 -66 -51 -101 -39 -128 16 -35 46 -22 38 15 -4 24 -1
28 24 34 21 4 28 10 24 21 -4 11 -2 13 9 10 10 -4 16 2 19 20 4 19 2 25 -8 21
-8 -3 -14 1 -14 8 0 7 -6 19 -14 26 -12 9 -19 5 -39 -27z"/>
<path d="M4953 1708 c-67 -57 -173 -178 -173 -199 0 -12 4 -19 9 -17 4 2 61
53 126 115 108 102 116 112 97 122 -17 9 -27 5 -59 -21z"/>
<path d="M1665 1710 c4 -6 11 -8 16 -5 14 9 11 15 -7 15 -8 0 -12 -5 -9 -10z"/>
<path d="M1536 1684 c-3 -8 -3 -21 1 -30 5 -13 2 -15 -17 -9 -17 5 -21 4 -15
-5 13 -21 -23 -42 -48 -28 -17 9 -19 8 -14 -6 4 -10 0 -30 -8 -45 -8 -16 -11
-31 -8 -35 15 -15 39 -2 94 49 33 30 80 66 105 81 51 30 53 38 6 24 -20 -5
-30 -5 -27 1 4 5 3 10 -2 10 -50 7 -62 6 -67 -7z"/>
<path d="M6482 1669 c2 -7 10 -15 17 -17 8 -3 12 1 9 9 -2 7 -10 15 -17 17 -8
3 -12 -1 -9 -9z"/>
<path d="M5710 1650 c0 -5 5 -10 10 -10 6 0 10 5 10 10 0 6 -4 10 -10 10 -5 0
-10 -4 -10 -10z"/>
<path d="M3590 1609 c0 -5 -5 -7 -12 -3 -7 4 -8 3 -4 -4 4 -6 13 -9 21 -6 8 4
12 10 9 15 -7 12 -14 11 -14 -2z"/>
<path d="M5700 1600 c0 -5 5 -10 10 -10 6 0 10 5 10 10 0 6 -4 10 -10 10 -5 0
-10 -4 -10 -10z"/>
<path d="M4585 1549 c-48 -51 -56 -82 -10 -39 23 21 69 90 61 90 -2 0 -25 -23
-51 -51z"/>
<path d="M3587 1574 c-6 -6 -4 -17 10 -51 3 -10 7 -20 8 -23 28 -108 29 -110
47 -104 11 3 18 0 18 -7 0 -7 2 -10 5 -8 8 8 -7 49 -16 43 -5 -3 -6 2 -3 10 3
9 -4 32 -15 52 -12 20 -20 43 -17 50 11 29 -17 58 -37 38z"/>
<path d="M5975 1551 c-8 -15 3 -31 21 -31 9 0 14 7 12 17 -4 20 -24 28 -33 14z"/>
<path d="M996 1539 c5 -9 2 -10 -12 -5 -15 6 -17 5 -6 -5 9 -10 15 -10 24 -1
17 17 26 15 32 -5 4 -14 4 -14 3 2 -1 13 -11 21 -26 23 -17 3 -21 0 -15 -9z"/>
<path d="M3840 1520 c15 -16 31 -30 34 -30 4 0 -3 14 -16 30 -12 17 -27 30
-34 30 -7 0 1 -13 16 -30z"/>
<path d="M1376 1474 c-9 -8 -16 -11 -16 -5 0 6 -4 11 -10 11 -6 0 -10 -27 -10
-60 0 -47 5 -66 20 -82 11 -12 23 -19 26 -15 4 4 -3 15 -14 26 -27 23 -27 27
-1 34 32 8 52 -2 38 -19 -6 -8 -7 -14 -2 -14 5 0 9 -9 10 -19 1 -13 -6 -20
-23 -24 -13 -2 -24 0 -24 4 0 5 -4 9 -8 9 -5 0 -9 -13 -10 -30 -1 -25 3 -30
23 -30 15 0 26 7 30 19 3 11 14 23 25 26 23 7 35 35 15 35 -8 0 -15 5 -15 10
0 6 7 10 16 10 13 0 14 3 4 15 -6 8 -9 19 -5 25 4 6 -7 10 -28 10 -53 0 -57
34 -7 53 12 4 11 6 -3 6 -10 1 -15 6 -12 11 9 15 -2 12 -19 -6z"/>
<path d="M3877 1473 c-12 -11 -8 -23 8 -23 8 0 15 7 15 15 0 16 -12 20 -23 8z"/>
<path d="M5700 1470 c0 -5 7 -10 16 -10 8 0 12 5 9 10 -3 6 -10 10 -16 10 -5
0 -9 -4 -9 -10z"/>
<path d="M2490 1467 c-3 -2 -52 -7 -110 -11 -58 -3 -114 -7 -125 -10 -11 -2
-45 -7 -76 -10 -53 -7 -56 -9 -51 -32 3 -17 0 -24 -12 -24 -9 0 -16 8 -16 20
0 24 -7 24 -122 5 -180 -29 -392 -37 -475 -17 -39 9 -57 2 -34 -13 5 -3 7 -21
4 -39 -3 -21 1 -46 10 -64 14 -29 13 -30 -9 -41 -18 -8 -24 -19 -24 -41 0 -16
0 -33 -1 -37 -1 -4 14 -14 31 -21 32 -13 32 -13 26 12 -5 21 -1 28 25 41 41
22 83 16 87 -11 3 -23 -32 -44 -76 -44 -21 0 -24 -2 -12 -10 23 -15 206 -12
312 4 280 44 600 76 758 76 97 0 140 3 130 10 -12 8 -11 10 6 10 12 0 27 -7
34 -15 7 -8 21 -15 31 -15 26 0 129 -40 129 -50 0 -5 -8 -15 -17 -22 -10 -7
-25 -22 -33 -32 -14 -18 -13 -18 8 -12 27 9 39 -13 22 -43 -9 -17 -8 -21 6
-21 13 0 14 -3 4 -15 -19 -23 -75 -6 -85 26 -4 10 -15 19 -26 19 -20 0 -26
-15 -9 -25 6 -3 -1 -22 -15 -45 -29 -46 -30 -50 -9 -50 9 0 12 5 8 12 -5 7 -3
8 6 3 10 -6 9 -11 -6 -22 -10 -8 -18 -19 -16 -24 1 -5 -2 -9 -8 -9 -5 0 -10 6
-10 14 0 10 -10 14 -34 13 -29 -2 -33 -5 -25 -19 8 -14 6 -16 -7 -11 -10 4
-14 13 -10 27 3 11 6 24 6 28 0 4 10 7 23 5 13 -1 21 3 19 11 -1 6 4 12 12 12
10 0 14 10 14 28 l-1 28 -106 -38 c-58 -21 -133 -45 -166 -53 -33 -9 -69 -25
-80 -35 -26 -25 -57 -27 -48 -4 4 12 1 15 -13 12 -11 -2 -18 -11 -16 -20 2
-11 -9 -17 -38 -21 -22 -3 -47 -12 -55 -21 -21 -20 -32 -20 -43 0 -12 22 -69
28 -96 11 -12 -7 -42 -12 -68 -11 -27 0 -48 -3 -48 -8 0 -17 -28 -7 -60 22
-30 27 -32 30 -12 30 36 0 25 19 -15 26 -21 4 -51 13 -66 21 -16 8 -31 13 -33
11 -8 -8 21 -68 33 -68 7 0 10 -7 7 -15 -8 -19 15 -48 32 -41 19 7 29 -14 13
-25 -12 -8 -12 -10 0 -18 17 -11 6 -31 -19 -31 -10 0 -29 -14 -41 -31 -18 -26
-19 -33 -8 -40 8 -5 23 -6 34 -3 39 12 70 9 70 -6 0 -8 7 -19 15 -25 29 -18
387 -15 376 4 -3 4 13 5 35 3 23 -3 39 0 39 7 0 6 7 8 15 5 17 -7 91 8 185 38
72 23 88 32 70 43 -7 4 -15 3 -19 -3 -11 -18 -70 -21 -102 -5 -26 13 -33 13
-40 2 -5 -8 -9 -19 -9 -24 0 -17 -38 -36 -46 -24 -4 6 -2 14 4 18 17 10 11 50
-7 43 -10 -4 -13 -1 -8 11 3 9 2 17 -4 17 -6 0 -7 6 -1 17 8 13 3 20 -24 35
-42 23 -44 22 -44 -2 0 -12 7 -20 18 -20 15 -1 15 -2 -2 -12 -15 -8 -21 -8
-24 0 -2 7 -10 12 -17 12 -8 0 -17 5 -21 12 -4 7 -3 8 5 4 7 -4 19 2 29 15 16
18 22 20 40 10 22 -12 28 -6 23 22 -1 5 3 5 9 2 6 -4 9 -13 6 -20 -7 -20 22
-27 32 -8 7 12 18 14 46 9 29 -6 36 -11 36 -31 0 -13 -6 -26 -12 -28 -9 -4
-10 -6 -1 -6 16 -1 43 27 43 45 0 14 8 17 42 17 10 0 20 8 23 18 4 10 12 16
20 13 8 -3 13 -9 12 -12 -1 -4 3 -9 8 -11 6 -1 29 -21 52 -42 24 -21 45 -39
49 -39 4 0 4 18 1 40 -3 23 -1 38 4 34 5 -3 9 -12 9 -21 0 -9 3 -14 6 -10 4 3
13 0 21 -8 12 -13 19 -12 55 6 60 31 123 93 151 152 45 91 56 235 26 334 -13
41 -48 85 -61 77 -7 -4 -8 -2 -4 4 4 7 -9 19 -31 30 -34 18 -67 26 -178 47
-43 8 -259 18 -265 12z m235 -57 c-4 -12 -2 -20 5 -20 6 0 8 5 5 10 -3 6 -1
10 5 10 6 0 8 6 4 13 -4 7 -3 9 2 4 5 -5 9 -13 9 -17 0 -5 9 -16 20 -25 20
-16 20 -16 -2 -12 -13 3 -33 -3 -45 -12 -13 -10 -34 -21 -48 -24 -25 -6 -25
-6 4 18 17 14 27 29 23 38 -3 8 0 20 6 26 16 16 19 14 12 -9z m110 0 c3 -5 1
-10 -4 -10 -6 0 -11 5 -11 10 0 6 2 10 4 10 3 0 8 -4 11 -10z m-190 -30 c11
-12 13 -20 6 -25 -6 -3 -11 -1 -11 4 0 6 -4 11 -10 11 -5 0 -10 -10 -10 -22 0
-17 -3 -19 -9 -9 -6 10 -10 10 -16 1 -4 -6 2 -21 13 -33 16 -17 18 -26 11 -39
-6 -10 -16 -18 -24 -18 -7 0 -15 -4 -17 -9 -3 -10 -36 -15 -78 -12 -16 1 -29
10 -37 26 -10 22 -8 28 10 46 25 23 60 34 82 25 8 -3 15 -1 15 3 0 5 -7 11
-15 15 -22 8 -19 19 10 37 35 21 60 21 80 -1z m-605 -25 c0 -8 -7 -15 -15 -15
-8 0 -15 7 -15 15 0 8 7 15 15 15 8 0 15 -7 15 -15z m110 -20 c0 -8 3 -20 6
-29 9 -24 -15 -19 -37 7 -26 31 -24 45 6 39 14 -2 25 -10 25 -17z m611 -23
c-6 -2 -11 -9 -11 -16 0 -18 -36 -45 -50 -36 -8 5 -7 9 5 14 11 4 16 15 14 33
-2 16 1 34 5 42 8 12 13 10 28 -10 12 -14 16 -25 9 -27z m-1181 8 c0 -5 -2
-10 -4 -10 -3 0 -8 5 -11 10 -3 6 -1 10 4 10 6 0 11 -4 11 -10z m-46 -9 c3 -5
0 -13 -7 -19 -15 -13 -42 1 -33 17 9 13 33 15 40 2z m842 -20 c24 4 25 -3 4
-26 -26 -27 -42 -33 -34 -11 3 7 -2 16 -10 19 -9 4 -16 11 -16 16 0 12 33 19
41 8 3 -4 10 -7 15 -6z m404 -35 c0 -16 -27 -29 -41 -20 -15 9 -10 22 9 27 29
8 32 7 32 -7z m-695 -10 c18 -18 0 -36 -36 -36 -37 0 -44 15 -17 34 27 20 36
20 53 2z m95 -1 c0 -8 -7 -15 -15 -15 -26 0 -18 20 13 29 1 1 2 -6 2 -14z
m830 -155 c0 -5 -4 -10 -10 -10 -5 0 -10 5 -10 10 0 6 5 10 10 10 6 0 10 -4
10 -10z m-400 -216 c0 -8 -6 -14 -14 -14 -9 0 -12 7 -9 20 6 22 23 18 23 -6z
m130 12 c0 -3 -4 -8 -10 -11 -5 -3 -10 -1 -10 4 0 6 5 11 10 11 6 0 10 -2 10
-4z m-270 -16 c-19 -13 -30 -13 -30 0 0 6 10 10 23 10 18 0 19 -2 7 -10z m360
-45 c0 -8 -4 -15 -10 -15 -5 0 -7 7 -4 15 4 8 8 15 10 15 2 0 4 -7 4 -15z
m-102 -20 c-3 -3 -9 2 -12 12 -6 14 -5 15 5 6 7 -7 10 -15 7 -18z m-455 -20
c-3 -9 -8 -14 -10 -11 -3 3 -2 9 2 15 9 16 15 13 8 -4z m63 -51 c-6 -15 45
-26 59 -13 17 17 28 9 11 -9 -20 -23 -84 -28 -92 -7 -4 8 -16 15 -28 15 -19 1
-19 2 -3 11 26 15 21 27 -10 23 -24 -4 -23 -2 7 10 31 12 36 12 48 -2 7 -9 10
-22 8 -28z m-86 -43 c0 -4 -13 -8 -30 -9 -39 -1 -39 12 0 15 17 1 30 -1 30 -6z
m155 -11 c-3 -5 -11 -10 -16 -10 -6 0 -7 5 -4 10 3 6 11 10 16 10 6 0 7 -4 4
-10z m-233 -28 c-7 -2 -9 -9 -6 -14 4 -7 2 -8 -4 -4 -19 12 -15 36 5 29 11 -4
13 -8 5 -11z m-42 -17 c0 -2 -17 -3 -37 -3 -28 0 -33 2 -18 8 17 6 55 3 55 -5z"/>
<path d="M2480 1250 c0 -5 5 -10 10 -10 6 0 10 5 10 10 0 6 -4 10 -10 10 -5 0
-10 -4 -10 -10z"/>
<path d="M3906 1443 c-4 -9 0 -23 9 -32 13 -13 17 -13 29 -1 13 13 12 17 -9
32 -21 16 -24 16 -29 1z"/>
<path d="M4686 1397 c-37 -53 -49 -90 -23 -68 8 6 17 8 20 4 4 -3 7 3 7 15 0
13 6 22 15 22 8 0 22 11 31 25 14 22 14 26 1 39 -13 14 -19 10 -51 -37z"/>
<path d="M3955 1406 c-18 -13 -17 -15 15 -35 68 -41 83 -11 19 37 -12 9 -20 9
-34 -2z"/>
<path d="M5264 1350 c-4 -22 -10 -40 -15 -40 -5 0 -9 -6 -9 -14 0 -14 21 -26
46 -26 19 0 18 36 -2 44 -16 6 -16 19 1 59 4 10 3 17 -4 17 -6 0 -14 -18 -17
-40z"/>
<path d="M4345 1350 c-3 -5 1 -10 9 -10 9 0 16 5 16 10 0 6 -4 10 -9 10 -6 0
-13 -4 -16 -10z"/>
<path d="M4240 1334 c0 -8 5 -12 10 -9 6 4 8 11 5 16 -9 14 -15 11 -15 -7z"/>
<path d="M5590 1330 c0 -5 5 -10 10 -10 6 0 10 5 10 10 0 6 -4 10 -10 10 -5 0
-10 -4 -10 -10z"/>
<path d="M5784 1293 c-32 -3 -44 -9 -53 -29 -6 -15 -7 -23 -1 -19 6 4 9 -5 8
-19 -1 -15 -6 -26 -10 -26 -4 0 -8 -9 -8 -21 0 -15 5 -20 23 -17 14 2 22 10
22 22 0 11 5 21 12 23 17 6 26 -16 13 -32 -14 -17 5 -59 21 -49 7 4 7 10 0 17
-18 18 -13 31 6 16 9 -8 14 -9 12 -4 -3 6 2 18 13 28 10 9 18 14 18 11 0 -4 6
-1 14 5 17 14 46 4 46 -16 0 -10 -9 -14 -32 -11 -25 2 -34 -1 -36 -15 -2 -10
0 -17 5 -16 24 4 25 -3 4 -20 -20 -16 -21 -19 -7 -24 10 -4 15 -3 11 3 -3 6 0
10 8 10 8 0 21 8 28 17 12 15 12 16 -1 8 -8 -5 3 12 25 38 29 33 46 45 62 43
12 -2 28 1 35 5 9 6 10 9 1 9 -7 0 -10 6 -7 14 5 14 -21 27 -91 45 -39 11 -60
11 -141 4z m141 -23 c3 -5 1 -10 -4 -10 -6 0 -11 5 -11 10 0 6 2 10 4 10 3 0
8 -4 11 -10z"/>
<path d="M4606 1262 c-5 -18 -5 -36 -2 -39 7 -7 19 43 13 59 -2 7 -7 -2 -11
-20z"/>
<path d="M1412 1271 c2 -7 7 -12 11 -12 12 1 9 15 -3 20 -7 2 -11 -2 -8 -8z"/>
<path d="M5664 1257 c-6 -17 2 -37 16 -37 15 0 19 29 5 40 -12 10 -16 9 -21
-3z"/>
<path d="M5497 1253 c-26 -4 -55 -38 -43 -50 3 -4 16 -2 29 4 26 12 51 -6 41
-30 -8 -23 -75 -30 -96 -10 -10 8 -15 20 -12 24 7 12 -13 11 -37 -1 -15 -9
-19 -7 -19 5 0 13 -2 13 -14 3 -11 -11 -11 -15 3 -25 19 -14 18 -15 -37 -41
-24 -12 -50 -18 -59 -15 -11 5 -14 1 -10 -13 3 -10 8 -33 12 -50 3 -17 16 -41
28 -52 24 -23 85 -42 73 -24 -3 6 -1 14 5 18 6 3 14 1 18 -5 5 -7 15 0 29 19
19 25 20 30 7 30 -10 0 -13 -5 -9 -12 4 -7 3 -8 -4 -4 -9 5 -4 17 13 41 16 20
21 35 15 37 -7 2 -3 11 9 22 21 19 21 19 21 0 0 -20 17 -44 31 -44 17 0 39 33
39 57 0 20 3 23 14 14 10 -8 16 -8 25 2 6 8 8 17 4 21 -13 12 -11 35 3 47 8 6
14 18 14 25 0 14 -31 16 -93 7z m-122 -233 c-3 -5 -11 -10 -16 -10 -6 0 -7 5
-4 10 3 6 11 10 16 10 6 0 7 -4 4 -10z"/>
<path d="M3752 1227 c-10 -11 -9 -17 2 -26 17 -14 26 -3 17 22 -6 16 -9 17
-19 4z"/>
<path d="M5287 1208 c5 -26 4 -30 -10 -25 -20 8 -21 -2 -3 -25 24 -33 38 -22
31 23 -5 30 -3 44 6 50 10 6 8 9 -8 9 -20 0 -22 -4 -16 -32z"/>
<path d="M4544 1213 c-3 -10 -12 -31 -20 -47 -18 -36 -14 -42 14 -16 13 13 22
33 22 50 0 33 -8 39 -16 13z"/>
<path d="M6046 1222 c-3 -5 1 -9 9 -9 8 0 12 4 9 9 -3 4 -7 8 -9 8 -2 0 -6 -4
-9 -8z"/>
<path d="M6075 1200 c-4 -6 -13 -9 -21 -6 -17 7 -44 -3 -44 -15 0 -5 8 -9 17
-9 15 0 15 -3 -4 -21 -11 -12 -33 -21 -47 -21 -14 0 -24 -4 -21 -8 2 -4 -5
-17 -16 -28 -16 -18 -17 -22 -4 -22 8 0 15 -7 15 -15 0 -8 -5 -15 -12 -15 -20
0 0 -13 67 -41 36 -15 67 -23 71 -18 3 5 10 9 16 9 7 0 6 -5 -2 -14 -9 -12 -7
-21 12 -46 12 -17 24 -26 26 -21 6 18 -16 109 -38 156 -25 54 -25 53 1 57 34
5 42 42 14 68 -16 15 -25 18 -30 10z m28 -20 c13 -15 14 -20 3 -20 -7 0 -16 9
-19 20 -3 11 -4 20 -3 20 1 0 9 -9 19 -20z m-78 -81 c-4 -5 -13 -9 -22 -9 -13
0 -13 3 -3 15 13 15 35 11 25 -6z m85 -139 c0 -5 -5 -10 -11 -10 -5 0 -7 5 -4
10 3 6 8 10 11 10 2 0 4 -4 4 -10z"/>
<path d="M4055 1184 l-30 -14 30 6 c31 6 41 11 34 18 -2 2 -17 -2 -34 -10z"/>
<path d="M5586 1177 c3 -10 9 -15 12 -12 3 3 0 11 -7 18 -10 9 -11 8 -5 -6z"/>
<path d="M4104 1171 c3 -5 18 -11 33 -14 26 -5 26 -4 8 9 -21 15 -49 19 -41 5z"/>
<path d="M4402 1113 c-37 -19 -93 -36 -137 -44 -42 -6 -73 -14 -71 -17 3 -2 1
-13 -5 -23 -8 -16 -6 -19 15 -19 13 0 26 7 30 15 3 8 10 15 17 15 6 0 9 -7 5
-15 -7 -20 9 -19 85 5 82 25 140 64 136 90 -2 11 -5 21 -8 22 -2 2 -32 -11
-67 -29z"/>
<path d="M5720 1125 c-15 -18 -40 -20 -40 -4 0 8 -4 8 -14 -1 -20 -16 -8 -43
16 -36 17 4 19 1 16 -25 -5 -29 -3 -30 31 -27 34 3 36 5 39 41 5 55 -22 84
-48 52z"/>
<path d="M3894 1075 c26 -19 42 -19 26 0 -7 8 -20 15 -29 15 -13 -1 -13 -3 3
-15z"/>
<path d="M5525 1078 c-2 -7 -3 -22 -2 -33 1 -13 -3 -19 -13 -17 -12 3 -12 1
-3 -9 10 -10 16 -7 32 12 12 13 20 30 18 38 -3 19 -26 26 -32 9z"/>
<path d="M4012 1066 c-26 -15 -42 -29 -27 -25 6 2 19 -2 30 -8 11 -6 39 -14
63 -18 38 -6 42 -5 42 14 0 12 5 21 12 21 7 0 8 3 3 9 -17 16 -99 20 -123 7z
m63 -16 c-3 -5 -12 -10 -18 -10 -7 0 -6 4 3 10 19 12 23 12 15 0z"/>
<path d="M2765 1020 c-4 -6 -3 -16 3 -22 6 -6 12 -6 17 2 4 6 3 16 -3 22 -6 6
-12 6 -17 -2z"/>
<path d="M4150 1020 c0 -5 5 -10 11 -10 5 0 7 5 4 10 -3 6 -8 10 -11 10 -2 0
-4 -4 -4 -10z"/>
<path d="M5460 990 c0 -5 5 -10 10 -10 6 0 10 5 10 10 0 6 -4 10 -10 10 -5 0
-10 -4 -10 -10z"/>
<path d="M1935 880 c3 -5 11 -10 16 -10 6 0 7 5 4 10 -3 6 -11 10 -16 10 -6 0
-7 -4 -4 -10z"/>
<path d="M2680 755 c-7 -9 -11 -18 -8 -20 7 -8 38 5 38 15 0 17 -18 19 -30 5z"/>
<path d="M6655 160 c-12 -14 -26 -18 -44 -15 l-26 5 24 -10 c20 -9 28 -7 48
12 27 25 23 27 60 -29 7 -10 5 -1 -4 20 -19 42 -32 46 -58 17z"/>
</g>
</svg>
